<?xml version="1.0" encoding="utf-8"?>
<!-- Generator: Adobe Illustrator 18.1.0, SVG Export Plug-In . SVG Version: 6.00 Build 0)  -->
<!DOCTYPE svg PUBLIC "-//W3C//DTD SVG 1.1//EN" "http://www.w3.org/Graphics/SVG/1.1/DTD/svg11.dtd">
<svg version="1.1" id="Layer_1" xmlns="http://www.w3.org/2000/svg" xmlns:xlink="http://www.w3.org/1999/xlink" x="0px" y="0px"
	 viewBox="0 0 120 120" enable-background="new 0 0 120 120" xml:space="preserve">
<g>
	<path d="M20.5,103.7c1,0,1.9,0.8,1.9,1.8v2.6c0,1-0.9,1.9-1.9,1.9H1.9c-1,0-1.9-0.9-1.9-1.9V11.9c0-1,0.9-1.9,1.9-1.9h18.6
		c1,0,1.9,0.9,1.9,1.9v2.5c0,1.1-0.9,1.9-1.9,1.9H6.8v87.4H20.5z"/>
</g>
<g>
	<path d="M99.5,16.3c-1,0-1.9-0.8-1.9-1.8v-2.6c0-1,0.9-1.9,1.9-1.9h18.6c1,0,1.9,0.9,1.9,1.9v96.2c0,1-0.9,1.9-1.9,1.9H99.5
		c-1,0-1.9-0.9-1.9-1.9v-2.5c0-1.1,0.9-1.9,1.9-1.9h13.7V16.3H99.5z"/>
</g>
<g>
	<path fill="#F05452" d="M40,92.3C40,92.3,40,92.3,40,92.3c-2.2,0-3.5-0.9-4.2-1.7c-1.8-1.9-1.7-4.6-1.7-4.9l0-4.7l-0.6,0
		c-6.1,0-11-5-11-11.1V52.5c0-6.1,5-11.1,11.1-11.1h39.2c6.1,0,11.1,5,11.1,11.1v17.4c0,6.1-5,11.1-11.1,11.1H54.1l-7.4,7.6
		C45.5,89.8,43.3,92.3,40,92.3z M33.6,45.9c-3.6,0-6.6,3-6.6,6.6v17.4c0,3.6,3,6.6,6.6,6.6l2.8,0.1c1.2,0,2.2,1,2.2,2.2v7
		c0,0.5,0.1,1.3,0.5,1.7c0.1,0.1,0.3,0.3,0.9,0.3V90l0-2.2c1.3,0,2.5-1.3,3.3-2.2l0.4-0.4l7.8-7.9c0.4-0.4,1-0.7,1.6-0.7h19.7
		c3.6,0,6.6-3,6.6-6.6V52.5c0-3.6-2.9-6.6-6.6-6.6H33.6z"/>
	<path fill="#F05452" d="M87.6,62.4c-1.2,0-2.2-1-2.2-2.2s1-2.2,2.2-2.2c2.9,0,5.3-2.4,5.3-5.3v-12c0-5.9-2.5-8.3-8.3-8.3H53.9
		c-2.9,0-5.3,2.4-5.3,5.3c0,1.2-1,2.2-2.2,2.2s-2.2-1-2.2-2.2c0-5.4,4.4-9.8,9.8-9.8h30.8c8.4,0,12.8,4.4,12.8,12.8v12
		C97.5,58,93.1,62.4,87.6,62.4z"/>
	<path fill="#F05452" d="M64.9,59.7H38.3c-1.2,0-2.2-1-2.2-2.2s1-2.2,2.2-2.2h26.6c1.2,0,2.2,1,2.2,2.2S66.1,59.7,64.9,59.7z"/>
	<path fill="#F05452" d="M53.2,69.4H38.3c-1.2,0-2.2-1-2.2-2.2c0-1.2,1-2.2,2.2-2.2h14.9c1.2,0,2.2,1,2.2,2.2
		C55.4,68.4,54.4,69.4,53.2,69.4z"/>
</g>
</svg>
