<?xml version="1.0" encoding="utf-8"?>
<!-- Generator: Adobe Illustrator 18.1.0, SVG Export Plug-In . SVG Version: 6.00 Build 0)  -->
<!DOCTYPE svg PUBLIC "-//W3C//DTD SVG 1.1//EN" "http://www.w3.org/Graphics/SVG/1.1/DTD/svg11.dtd">
<svg version="1.1" id="Layer_1" xmlns="http://www.w3.org/2000/svg" xmlns:xlink="http://www.w3.org/1999/xlink" x="0px" y="0px"
	 viewBox="0 0 120 120" enable-background="new 0 0 120 120" xml:space="preserve">
<g>
	<g>
		<path fill="#00BCD6" d="M97.8,94.9H22.2c-1.2,0-2.2-1-2.2-2.2V38.9c0-1.2,1-2.2,2.2-2.2h75.6c1.2,0,2.2,1,2.2,2.2v53.8
			C100,93.9,99,94.9,97.8,94.9z M24.4,90.4h71.1V41.1H24.4V90.4z"/>
	</g>
	<g>
		<path fill="#00BCD6" d="M97.8,41.1H22.2c-1.2,0-2.2-1-2.2-2.2V27.3c0-1.2,1-2.2,2.2-2.2h75.6c1.2,0,2.2,1,2.2,2.2v11.5
			C100,40.1,99,41.1,97.8,41.1z M24.4,36.6h71.1v-7.1H24.4V36.6z"/>
	</g>
	<g>
		<circle fill="#00BCD6" cx="28.7" cy="33.1" r="1.6"/>
	</g>
	<g>
		<circle fill="#00BCD6" cx="33.4" cy="33.1" r="1.6"/>
	</g>
	<g>
		<circle fill="#00BCD6" cx="38" cy="33.1" r="1.6"/>
	</g>
	<g>
		<g>
			<path fill="#00BCD6" d="M48.8,72.9c-0.5,0-1-0.2-1.4-0.6l-6-6c-0.8-0.8-0.8-2,0-2.7l6-6c0.8-0.8,2-0.8,2.7,0c0.8,0.8,0.8,2,0,2.7
				l-4.7,4.7l4.7,4.7c0.8,0.8,0.8,2,0,2.7C49.8,72.7,49.3,72.9,48.8,72.9z"/>
		</g>
		<g>
			<path fill="#00BCD6" d="M71.2,72.9c-0.5,0-1-0.2-1.4-0.6c-0.8-0.8-0.8-2,0-2.7l4.7-4.7l-4.7-4.7c-0.8-0.8-0.8-2,0-2.7
				c0.8-0.8,2-0.8,2.7,0l6,6c0.4,0.4,0.6,0.9,0.6,1.4c0,0.5-0.2,1-0.6,1.4l-6,6C72.2,72.7,71.7,72.9,71.2,72.9z"/>
		</g>
		<g>
			<path fill="#00BCD6" d="M57.2,77.4c-0.2,0-0.3,0-0.5-0.1c-1-0.3-1.7-1.3-1.4-2.4l4.9-19.3c0.3-1,1.3-1.7,2.4-1.4
				c1,0.3,1.7,1.3,1.4,2.4l-4.9,19.3C58.9,76.8,58.1,77.4,57.2,77.4z"/>
		</g>
	</g>
</g>
<g>
	<path d="M20.5,103.7c1,0,1.9,0.8,1.9,1.8v2.6c0,1-0.9,1.9-1.9,1.9H1.9c-1,0-1.9-0.9-1.9-1.9V11.9c0-1,0.9-1.9,1.9-1.9h18.6
		c1,0,1.9,0.9,1.9,1.9v2.5c0,1.1-0.9,1.9-1.9,1.9H6.8v87.4H20.5z"/>
</g>
<g>
	<path d="M99.5,16.3c-1,0-1.9-0.8-1.9-1.8v-2.6c0-1,0.9-1.9,1.9-1.9h18.6c1,0,1.9,0.9,1.9,1.9v96.2c0,1-0.9,1.9-1.9,1.9H99.5
		c-1,0-1.9-0.9-1.9-1.9v-2.5c0-1.1,0.9-1.9,1.9-1.9h13.7V16.3H99.5z"/>
</g>
</svg>
