<?xml version="1.0" encoding="utf-8"?>
<!-- Generator: Adobe Illustrator 18.1.0, SVG Export Plug-In . SVG Version: 6.00 Build 0)  -->
<!DOCTYPE svg PUBLIC "-//W3C//DTD SVG 1.1//EN" "http://www.w3.org/Graphics/SVG/1.1/DTD/svg11.dtd">
<svg version="1.1" id="Layer_1" xmlns="http://www.w3.org/2000/svg" xmlns:xlink="http://www.w3.org/1999/xlink" x="0px" y="0px"
	 width="150px" height="27.5px" viewBox="0 0 150 27.5" enable-background="new 0 0 150 27.5" xml:space="preserve">
<g>
	<path fill="#474747" d="M14.4,18.7c0.7-2.6,1.4-5.1,2.1-7.7c0.8-2.8,1.8-5.7,2.7-8.5c0.2-0.8,0.7-1.1,1.5-1c1.8,0.1,3.7,0.1,5.5,0
		c1,0,1.2,0.3,1.2,1.2c0.2,4,0.5,7.9,0.7,11.9c0.2,3.7,0.3,7.3,0.6,11c0.1,1.4-0.4,1.8-1.6,1.6c-0.4-0.1-0.8,0-1.2,0
		c-3,0-3.1,0-3.2-3.1c-0.2-5-0.3-10-0.5-15c0-0.3,0-0.6-0.1-1.3c-1.3,4.1-2.4,7.8-3.6,11.4c-0.7,2.2-1.4,4.4-2.1,6.6
		c-0.2,0.7-0.5,0.9-1.2,0.9c-3.8,0.1-3.8,0.2-4.7-3.4c-1.3-4.8-2.8-9.6-3.7-14.5C6.7,8.5,6.6,8.2,6.4,7.6C6.2,12.4,6,16.8,5.8,21.3
		c-0.1,1.6-0.2,3.3-0.3,4.9c0,0.7-0.3,1-1,0.9c-1,0-2.1-0.1-3.1,0c-1.1,0.1-1.5-0.2-1.4-1.4c0.5-7.1,1-14.2,1.4-21.2
		c0.2-3,0.2-3,3.3-3c0.8,0,1.7,0.1,2.5,0C9,1.2,9.8,1.9,10.2,3.6C11.5,8.6,13.2,13.5,14.4,18.7z"/>
	<path fill="#474747" d="M109.2,10.5c4.9-4.3,10.9-2.7,12.9,3.1c1.2,3.5,0.9,6.8-1,10c-2.8,4.6-8,5.2-12.6,1.4
		c-0.4,0.6,0.2,1.9-0.9,2.1c-0.8,0.1-1.6,0-2.4,0c-2,0-2,0-2-2c0-7.8,0.1-15.7,0-23.5c0-1.4,0.4-1.7,1.7-1.6c1,0.1,2,0.1,3,0
		c1-0.1,1.4,0.2,1.4,1.3C109.1,4.3,109.2,7.3,109.2,10.5z M109.1,17.7C109.1,17.7,109.2,17.7,109.1,17.7c0.1,0.5,0.1,1.1,0.1,1.6
		c0.1,2,1.1,3.1,3,3.5c1.5,0.3,3.1-0.4,3.9-2.1c0.9-2.1,0.9-4.2-0.1-6.3c-0.7-1.4-2-2-3.6-1.8c-1.5,0.2-2.5,1.1-3,2.6
		C109.1,15.9,109.2,16.8,109.1,17.7z"/>
	<path fill="#474747" d="M70.4,10.4c1.5-1.3,2.9-2.1,4.5-2.3c4.1-0.5,7.2,2.1,7.4,6.5c0.2,3.9,0,7.7,0.1,11.6c0,0.7-0.3,0.9-1,1
		c-5,0.3-5,0.4-5-4.6c0-2.1,0-4.2,0-6.3c-0.1-2.3-1.1-3.5-3-3.5c-1.9,0-3,1.3-3,3.6c0,3.2,0,6.4,0,9.5c0,0.9-0.3,1.2-1.2,1.2
		c-1.1-0.1-2.3-0.1-3.4,0c-1,0.1-1.4-0.2-1.4-1.3c0-8.2,0-16.4,0-24.6c0-0.9,0.2-1.3,1.2-1.2c1.2,0.1,2.5,0.1,3.7,0
		c0.9,0,1.1,0.3,1.1,1.1C70.4,4.1,70.4,7.1,70.4,10.4z"/>
	<path fill="#474747" d="M41.6,25.3c-2.7,2.4-5.4,2.8-8.4,1.6c-2.1-0.9-3.1-2.6-3.3-4.8c-0.2-2.2,0.7-4.1,2.6-5.4
		c2.2-1.5,4.7-1.9,7.3-2.1c0.4,0,0.9,0.2,1-0.3c0.2-0.5-0.1-1-0.4-1.3c-0.8-0.8-2-0.9-3-0.9c-1.4,0-2.8,0.3-4,0.9
		c-0.9,0.4-1.1,0.1-1.4-0.7c-0.9-2.8-0.9-2.9,2-3.7c2.7-0.7,5.5-1,8.2-0.1c2.9,1,4.6,3.2,4.7,6.2c0.2,3.8-0.2,7.6,0.3,11.5
		c0.1,0.7-0.2,0.9-0.8,0.9c-0.8,0-1.6,0-2.4,0C42.7,27.2,41.5,27.3,41.6,25.3z M41.2,19.8c-0.2-0.3,0.4-1.3-0.6-1.4
		c-1.4-0.1-2.9,0.1-4,1.1c-0.8,0.7-0.9,1.6-0.6,2.6c0.3,1,1.2,1.3,2.1,1.3C40,23.3,41.2,22,41.2,19.8z"/>
	<path fill="#474747" d="M95.9,25.1c-2.4,2.2-4.7,2.8-7.3,2.3c-2.5-0.5-4.1-2.2-4.5-4.5c-0.4-2.8,0.6-5,3-6.4c2-1.2,4.3-1.5,6.5-1.7
		c0.5,0,1.2,0.3,1.3-0.5c0.1-0.7-0.4-1.3-1-1.5c-1.6-0.7-3.2-0.5-4.8-0.2c-0.1,0-0.3,0.1-0.4,0.2c-2.5,0.7-2.5,0.7-3.2-1.9
		c-0.2-0.7,0-1,0.6-1.3c3.5-1.4,7.1-1.9,10.7-0.6c2.5,0.9,3.8,3,4,5.6c0.4,4-0.1,7.9,0.3,11.9c0.1,0.7-0.2,0.9-0.8,0.9
		c-0.9,0-1.9,0-2.8,0C96.4,27.2,95.4,27.1,95.9,25.1z M95.3,19.7c-0.1-0.5,0.3-1.3-0.8-1.3c-1.3,0-2.5,0.2-3.5,0.9
		c-1,0.6-1.3,1.6-0.9,2.7c0.4,1.1,1.2,1.4,2.2,1.4C94.1,23.3,95.2,22,95.3,19.7z"/>
	<path fill="#474747" d="M143.6,19.7c-1.6,0-3.3,0-4.9,0c-1.2,0-1.1,0.5-0.6,1.2c0.8,1.4,2.1,1.9,3.6,2.1c1.9,0.2,3.8,0.1,5.6-0.5
		c0.7-0.2,0.9,0,1.1,0.7c0.8,3.3,0.7,3.5-2.7,4c-2.6,0.4-5.2,0.5-7.8-0.4c-3.8-1.3-5.7-4.2-5.9-8.7c-0.3-6.4,5.2-11.1,11.4-10
		c3.8,0.7,6.3,3.9,6.6,8.4c0,0.4,0,0.8,0,1.2c-0.1,1.9-0.1,2-2,2C146.5,19.7,145.1,19.7,143.6,19.7
		C143.6,19.7,143.6,19.7,143.6,19.7z M141,15.6c0.7,0,1.5-0.1,2.2,0c1.4,0.1,1.3-0.7,1-1.6c-0.5-1.2-1.3-1.9-2.7-2.1
		c-1.5-0.1-2.6,0.5-3.3,1.8c-0.3,0.5-0.7,1.1-0.4,1.7c0.3,0.5,0.9,0.2,1.4,0.2C139.8,15.6,140.4,15.6,141,15.6z"/>
	<path fill="#474747" d="M54.7,27.5c-1.8,0.1-3.5-0.3-5.2-0.9c-0.8-0.3-1-0.7-0.7-1.5c0.3-0.9,0.3-2.2,0.9-2.8
		c0.6-0.6,1.6,0.5,2.5,0.7c1.1,0.2,2.1,0.4,3.2,0.3c0.8-0.1,1.5-0.3,1.7-1.2c0.2-1-0.5-1.5-1.2-1.8c-1-0.4-2.1-0.8-3.2-1.3
		c-2.6-1.3-3.9-3-3.7-5.2c0.2-2.5,2-4.6,4.6-5.4c2.5-0.7,5-0.5,7.5,0.3c0.7,0.2,1,0.6,0.7,1.4c0,0,0,0.1,0,0.1
		c-0.2,0.9-0.2,2-0.7,2.5c-0.7,0.7-1.6-0.3-2.4-0.4c-0.8-0.1-1.7-0.2-2.5-0.1c-0.7,0.1-1.2,0.5-1.3,1.2c-0.1,0.7,0.3,1.1,0.9,1.4
		c1.1,0.5,2.2,0.9,3.3,1.4c2.7,1.1,4.1,3,3.9,5.5c-0.1,2.6-1.6,4.4-4.5,5.3C57.2,27.4,55.9,27.6,54.7,27.5z"/>
	<path fill="#474747" d="M130.3,13.8c0,4,0,8,0,12.1c0,1-0.3,1.3-1.3,1.3c-1.1-0.1-2.3-0.1-3.4,0c-1.1,0.1-1.3-0.4-1.3-1.4
		c0-8.1,0-16.2,0-24.3c0-1.1,0.3-1.5,1.4-1.4c1,0.1,2.1,0.1,3.1,0c1.3-0.1,1.5,0.4,1.5,1.5C130.3,5.6,130.3,9.7,130.3,13.8z"/>
</g>
</svg>
