<!-- Generator: Adobe Illustrator 18.1.0, SVG Export Plug-In  -->
<svg version="1.1"
	 xmlns="http://www.w3.org/2000/svg" xmlns:xlink="http://www.w3.org/1999/xlink" xmlns:a="http://ns.adobe.com/AdobeSVGViewerExtensions/3.0/"
	 x="0px" y="0px" width="4.2px" height="3.5px" viewBox="0 0 4.2 3.5" enable-background="new 0 0 4.2 3.5" xml:space="preserve">
<defs>
</defs>
<g>
	<path fill="#FFFFFF" d="M0,2.2c0-1.2,0.8-1.9,1.1-2.2C1.2,0,1.3,0,1.3,0.1l0.2,0.2c0.1,0.1,0.1,0.2,0,0.3C1.4,0.6,0.7,1.1,0.7,2
		c0,0,0.2-0.1,0.4-0.1c0.4,0,0.8,0.3,0.8,0.8S1.5,3.5,1,3.5C0.6,3.5,0,3.2,0,2.2z M2.3,2.2c0-1.2,0.8-1.9,1.1-2.2
		C3.5,0,3.6,0,3.7,0.1l0.2,0.2c0.1,0.1,0,0.2,0,0.3C3.7,0.6,3,1.1,3,2c0,0,0.2-0.1,0.4-0.1c0.4,0,0.8,0.3,0.8,0.8S3.8,3.5,3.3,3.5
		C2.9,3.5,2.3,3.2,2.3,2.2z"/>
</g>
</svg>
