<?xml version="1.0" encoding="ISO-8859-1"?>
<!-- Generator: Adobe Illustrator 13.0.0, SVG Export Plug-In . SVG Version: 6.00 Build 14948)  -->
<!DOCTYPE svg PUBLIC "-//W3C//DTD SVG 1.1//EN" "http://www.w3.org/Graphics/SVG/1.1/DTD/svg11.dtd">
<svg version="1.1" id="Layer_1" xmlns="http://www.w3.org/2000/svg" xmlns:xlink="http://www.w3.org/1999/xlink" x="0px" y="0px" width="300px" height="290px" viewBox="0 0 300 290" style="enable-background:new 0 0 300 290;" xml:space="preserve">
<path style="fill:#FFFFFF;" d="M151.469,30.834c-4.44-11.061-15.258-23.008-35.521-21.367  c-25.809,2.799-33.854,27.476-29.953,42.197c-10.28-6.944-27.759-9.998-43.017,3.04c-19.7,19.7-9.164,46.342,1.668,52.733  c-11.935-1.103-30.799,6.943-34.972,27.988c-4.44,26.13,15.528,41.363,34.972,41.363h215.6c22.484,0,34.958-19.403,33.559-37.703  c-2.207-23.883-24.114-33.047-36.062-31.083c9.984-5.557,23.318-31.66,3.041-52.182c-16.093-15.272-36.612-9.715-43.825-3.054  c3.888-12.757-2.489-39.129-28.593-43.301c-1.803-0.201-3.54-0.31-5.196-0.31C163.242,9.158,154.282,23.689,151.469,30.834"/>
<path style="fill:#F37021;" d="M46.569,58.862c-11.382,10.28-15.527,33.572,4.993,47.188l81.863,56.028L93.732,71.362  C85.415,49.955,62.662,45.286,46.569,58.862"/>
<path style="fill:#CC004C;" d="M117.036,14.755c-13.308,0.27-33.289,16.079-24.395,40.218l41.052,96.585l14.424-101.589  C151.455,24.726,132.308,13.073,117.036,14.755"/>
<path style="fill:#6460AA;" d="M154.524,46.094h7.763c0,0,4.145,0,4.708,1.951c-3.054,2.489-11.368,2.8-10.266,16.093l13.051,87.406  l40.771-96.839c8.341-21.622-9.165-39.68-24.692-40.232c-0.726-0.053-1.453-0.095-2.206-0.095  C169.714,14.378,153.744,24.484,154.524,46.094"/>
<path style="fill:#0089D0;" d="M208.911,72.184l-38.564,89.628l81.836-56.324c18.866-13.348,15.824-34.689,5.263-45.238  c-4.428-4.965-12.555-8.8-21.165-8.8C226.107,51.448,215.222,56.831,208.911,72.184"/>
<path style="fill:#0DB14B;" d="M243.021,118.242l-76.856,53.554h94.632c19.415,0,31.89-19.97,26.345-38.296  c-3.714-11.518-14.707-20.56-27.463-20.573C254.31,112.928,248.617,114.542,243.021,118.242"/>
<path style="fill:#FCB711;" d="M44.363,171.796h93.234l-76.873-53.554c-17.761-11.384-37.729-4.723-44.94,14.167  C9.674,154.034,24.933,171.796,44.363,171.796"/>
<path d="M145.44,238.441h16.739c3.848,0.241,10.669,3.593,10.669,11.531c0,8.303-7.078,11.653-10.914,12.029h-16.495L145.44,238.441   M145.186,201.479h13.778c4.709,0.255,10.278,3.726,10.278,10.172c0,6.324-4.21,10.536-9.659,11.29h-14.397V201.479   M126.348,186.098v91.271h44.39c10.535,0,23.063-10.537,23.063-24.302c0-14.384-9.419-21.448-15.38-24.301  c0,0,10.913-6.324,10.429-19.968c-0.498-18.354-17.493-22.7-23.32-22.7H126.348"/>
<polygon points="38.912,277.368 58.261,277.368 58.261,224.798 115.798,280.839 115.798,186.098 96.463,186.098 96.463,237.323   38.912,182.387 "/>
<path d="M196.908,230.744c0.485,28.861,21.272,50.443,47.996,50.443c6.337,0,13.012-1.196,19.834-3.819v-18.597  c-5.407,3.296-11.424,4.885-17.318,4.885c-16.173,0-31.431-11.937-30.8-33.652c1.09-17.614,15.543-29.777,31.123-29.777  c5.705,0,11.572,1.64,16.994,5.22v-18.098c-6.323-2.557-12.607-3.7-18.661-3.7C219.419,183.649,197.419,206.081,196.908,230.744"/>
</svg>