<!-- Generator: Adobe Illustrator 18.1.0, SVG Export Plug-In  -->
<svg version="1.1"
	 xmlns="http://www.w3.org/2000/svg" xmlns:xlink="http://www.w3.org/1999/xlink" xmlns:a="http://ns.adobe.com/AdobeSVGViewerExtensions/3.0/"
	 x="0px" y="0px" width="48px" height="34px" viewBox="0 0 48 34" enable-background="new 0 0 48 34" xml:space="preserve">
<defs>
</defs>
<g>
	<circle fill="#09BCD4" cx="10.7" cy="12.4" r="1.6"/>
	<g>
		<circle fill="#010101" cx="10.7" cy="27" r="1.6"/>
		<circle fill="#FEC111" cx="15.2" cy="27" r="1.6"/>
		<circle fill="#010101" cx="19.8" cy="27" r="1.6"/>
	</g>
	<g>
		<circle fill="#010101" cx="26.9" cy="17.3" r="1.6"/>
		<circle fill="#010101" cx="10.7" cy="17.3" r="1.6"/>
		<path fill="#38A4DD" d="M22.1,18.8h-6.7c-0.8,0-1.5-0.7-1.5-1.5v-0.2c0-0.8,0.7-1.5,1.5-1.5h6.7c0.8,0,1.5,0.7,1.5,1.5v0.2
			C23.6,18.2,22.9,18.8,22.1,18.8z"/>
	</g>
	<g>
		<g>
			<circle fill="#903F98" cx="21.7" cy="22.2" r="1.6"/>
			<path fill="#010101" d="M17.2,23.7h-6.7C9.7,23.7,9,23,9,22.2V22c0-0.8,0.7-1.5,1.5-1.5h6.7c0.8,0,1.5,0.7,1.5,1.5v0.2
				C18.7,23,18,23.7,17.2,23.7z"/>
			<circle fill="#F05455" cx="37.4" cy="22.2" r="1.6"/>
			<path fill="#010101" d="M32.9,23.7h-6.7c-0.8,0-1.5-0.7-1.5-1.5V22c0-0.8,0.7-1.5,1.5-1.5h6.7c0.8,0,1.5,0.7,1.5,1.5v0.2
				C34.4,23,33.7,23.7,32.9,23.7z"/>
		</g>
	</g>
	<g>
		<path fill="#8BC249" d="M17.2,9.1h-6.7C9.7,9.1,9,8.4,9,7.6V7.3c0-0.8,0.7-1.5,1.5-1.5h6.7c0.8,0,1.5,0.7,1.5,1.5v0.2
			C18.7,8.4,18,9.1,17.2,9.1z"/>
		<path fill="#010101" d="M28.2,9.1h-6.7c-0.8,0-1.5-0.7-1.5-1.5V7.3c0-0.8,0.7-1.5,1.5-1.5h6.7c0.8,0,1.5,0.7,1.5,1.5v0.2
			C29.7,8.4,29,9.1,28.2,9.1z"/>
	</g>
</g>
<path fill="#010101" d="M0,33.8V0.3C0,0.1,0.1,0,0.2,0h8c0.1,0,0.2,0.1,0.2,0.2v2.8c0,0.1-0.1,0.2-0.2,0.2H3.7c-0.1,0-0.1,0-0.1,0.1
	v27.2c0,0.1,0,0.1,0.1,0.1h4.5c0.1,0,0.2,0.1,0.2,0.2v2.8c0,0.1-0.1,0.2-0.2,0.2h-8C0.1,34,0,33.9,0,33.8z"/>
<path fill="#010101" d="M39.6,33.8V31c0-0.1,0.1-0.2,0.2-0.2h4.5c0.1,0,0.1,0,0.1-0.1V3.4c0-0.1,0-0.1-0.1-0.1h-4.5
	c-0.1,0-0.2-0.1-0.2-0.2V0.2c0-0.1,0.1-0.2,0.2-0.2h7.9C47.9,0,48,0.1,48,0.2v33.5c0,0.1-0.1,0.2-0.2,0.2h-7.9
	C39.7,34,39.6,33.9,39.6,33.8z"/>
</svg>
