<?xml version="1.0" encoding="utf-8"?>
<!-- Generator: Adobe Illustrator 18.1.0, SVG Export Plug-In . SVG Version: 6.00 Build 0)  -->
<!DOCTYPE svg PUBLIC "-//W3C//DTD SVG 1.1//EN" "http://www.w3.org/Graphics/SVG/1.1/DTD/svg11.dtd">
<svg version="1.1"
	 id="svg2985" xmlns:rdf="http://www.w3.org/1999/02/22-rdf-syntax-ns#" xmlns:sodipodi="http://sodipodi.sourceforge.net/DTD/sodipodi-0.dtd" xmlns:inkscape="http://www.inkscape.org/namespaces/inkscape" xmlns:dc="http://purl.org/dc/elements/1.1/" xmlns:cc="http://creativecommons.org/ns#" xmlns:svg="http://www.w3.org/2000/svg" sodipodi:docname="dropbox-logos_dropbox-logotype-blue.pdf" inkscape:version="0.48.4 r9939"
	 xmlns="http://www.w3.org/2000/svg" xmlns:xlink="http://www.w3.org/1999/xlink" x="0px" y="0px" viewBox="207 -34.5 557.5 212.5"
	 enable-background="new 207 -34.5 557.5 212.5" xml:space="preserve">
<sodipodi:namedview  id="namedview2987" borderopacity="1" inkscape:cy="106.25" pagecolor="#ffffff" showgrid="false" objecttolerance="10" bordercolor="#666666" inkscape:zoom="0.59730942" gridtolerance="10" guidetolerance="10" inkscape:cx="278.75" inkscape:window-maximized="1" inkscape:pageopacity="0" inkscape:current-layer="g2993" inkscape:pageshadow="2" inkscape:window-width="1920" inkscape:window-x="-8" inkscape:window-height="1018" inkscape:window-y="-8">
	</sodipodi:namedview>
<g id="g2993" transform="matrix(1.25,0,0,-1.25,0,212.5)" inkscape:label="dropbox-logos_dropbox-logotype-blue" inkscape:groupmode="layer">
	<g id="g2995" transform="translate(76.1162,130.9785)">
		<path id="path2997" fill="#FFFFFF" d="M165.6,27.6L136,8.3l20.5-16.4l29.9,18.4L165.6,27.6z"/>
	</g>
	<g id="g2999" transform="translate(46.4863,78.8198)">
		<path id="path3001" fill="#FFFFFF" d="M165.6,27.6l29.6-19.3L216,25.6L186.1,44L165.6,27.6z"/>
	</g>
	<g id="g3003" transform="translate(96.8486,76.7798)">
		<path id="path3005" fill="#FFFFFF" d="M165.6,27.6l20.7-17.3L216,29.6L195.5,46L165.6,27.6z"/>
	</g>
	<g id="g3007" transform="translate(147.2109,111.6328)">
		<path id="path3009" fill="#FFFFFF" d="M165.6,27.6L136,46.9l-20.7-17.3l29.9-18.4L165.6,27.6z"/>
	</g>
	<g id="g3011" transform="translate(96.9092,73.0566)">
		<path id="path3013" fill="#FFFFFF" d="M165.6,27.6l-20.8-17.3l-8.9,5.8V9.6l29.7-17.8l29.7,17.8v6.5l-8.9-5.8L165.6,27.6z"/>
	</g>
	<g id="g3015">
		<g>
			<g id="g3017">
				<g id="g3023" transform="translate(173.7266,102.6348)">
					<path id="path3025" fill="#FFFFFF" d="M165.6,27.6h2c4.6,0,11-0.5,11-16.6c0-17-6.4-17.6-11-17.6h-2V27.6z M154.2-15.5h13.7
						c4,0,9.6,0,14.2,3.6c5.6,4.3,8.5,13,8.5,22.8c0,25.6-16.2,25.7-24.2,25.7h-12.3C154.2,36.6,154.2-15.5,154.2-15.5z"/>
				</g>
				<g id="g3027" transform="translate(202.7119,98.0259)">
					<path id="path3029" fill="#FFFFFF" d="M165.6,27.6v-38.5h10.7V5.7c0,3,0,11.9,7.9,11.9c0.4,0,0.9,0,1.8-0.2v10.5
						c-0.5,0.2-1.1,0.2-1.9,0.2c-6.3,0-8.1-6.6-9.1-9.8l0,9.3H165.6z"/>
				</g>
				<g id="g3031" transform="translate(240.333,91.3848)">
					<path id="path3033" fill="#FFFFFF" d="M165.6,27.6c3.3,0,4.5-2.7,4.5-12.6c0-10.3-1.4-12.6-4.5-12.6c-3.2,0-4.6,2.3-4.6,12.6
						C161,24.5,162.1,27.6,165.6,27.6L165.6,27.6z M165.6,35.1c-11.5,0-15.7-8-15.7-20.1c0-12.4,4.5-20.1,15.7-20.1
						c11.3,0,15.7,7.7,15.7,20.1C181.3,27.1,177,35.1,165.6,35.1"/>
				</g>
				<g id="g3035" transform="translate(269.7393,82.5566)">
					<path id="path3037" fill="#FFFFFF" d="M165.6,27.6c0,3.4,0,8.9,4.9,8.9c4.1,0,4.5-5.4,4.5-12.2c0-8.1-0.4-12.9-4.8-12.9
						c-4.5,0-4.5,3.3-4.5,8.8V27.6z M155,43.1V-8.5h10.6V7.4c1.2-1.2,3.1-3.4,7.4-3.4C185.2,4,186,18.9,186,24.3
						c0,6.5-1.3,12.5-5,16.3c-1.9,1.9-4.8,3-7.4,3c-5.2,0-7.4-3.8-8.7-6.3v5.8H155z"/>
				</g>
				<g id="g3039" transform="translate(303.9316,84.4312)">
					<path id="path3041" fill="#FFFFFF" d="M165.6,27.6c0,2,0,3.9,1.3,5.4c0.8,1,2,1.6,3.4,1.6c3.1,0,4.7-2.6,4.7-12.7
						c0-9.9-1.5-12.6-4.9-12.6c-4.5,0-4.5,5-4.5,9.4V27.6z M155,54.8V2.7h6.3c0.9,2.7,1.3,3.5,2,5c0.9-2,2.7-5.8,8.9-5.8
						c2,0,4.1,0.4,6.3,1.5c7,3.7,7.5,15.2,7.5,18.8c0,9.3-3,19.5-12.4,19.5c-4.6,0-6.7-2.5-8.1-4.1v17.2H155z"/>
				</g>
				<g id="g3043" transform="translate(342.8721,91.3848)">
					<path id="path3045" fill="#FFFFFF" d="M165.6,27.6c3.3,0,4.5-2.7,4.5-12.6c0-10.3-1.4-12.6-4.5-12.6c-3.2,0-4.6,2.3-4.6,12.6
						C161,24.5,162.1,27.6,165.6,27.6L165.6,27.6z M165.6,35.1c-11.5,0-15.7-8-15.7-20.1c0-12.4,4.5-20.1,15.7-20.1
						c11.3,0,15.7,7.7,15.7,20.1C181.3,27.1,177,35.1,165.6,35.1"/>
				</g>
				<g id="g3047" transform="translate(358.1104,98.0259)">
					<path id="path3049" fill="#FFFFFF" d="M165.6,27.6l9.9-18.8l-11.4-19.7h9.3l6.5,11.6l5.6-11.6h11.7l-11.5,21.6l9.9,17h-9.3
						l-4.9-8.9l-4.1,8.9H165.6z"/>
				</g>
			</g>
		</g>
	</g>
</g>
</svg>
