<?xml version="1.0" encoding="utf-8"?>
<!-- Generator: Adobe Illustrator 18.1.0, SVG Export Plug-In . SVG Version: 6.00 Build 0)  -->
<!DOCTYPE svg PUBLIC "-//W3C//DTD SVG 1.1//EN" "http://www.w3.org/Graphics/SVG/1.1/DTD/svg11.dtd">
<svg version="1.1" id="Layer_1" xmlns="http://www.w3.org/2000/svg" xmlns:xlink="http://www.w3.org/1999/xlink" x="0px" y="0px"
	 viewBox="0 0 120 120" enable-background="new 0 0 120 120" xml:space="preserve">
<g>
	<path d="M20.5,103.7c1,0,1.9,0.8,1.9,1.8v2.6c0,1-0.9,1.9-1.9,1.9H1.9c-1,0-1.9-0.9-1.9-1.9V11.9c0-1,0.9-1.9,1.9-1.9h18.6
		c1,0,1.9,0.9,1.9,1.9v2.5c0,1.1-0.9,1.9-1.9,1.9H6.8v87.4H20.5z"/>
</g>
<g>
	<path d="M99.5,16.3c-1,0-1.9-0.8-1.9-1.8v-2.6c0-1,0.9-1.9,1.9-1.9h18.6c1,0,1.9,0.9,1.9,1.9v96.2c0,1-0.9,1.9-1.9,1.9H99.5
		c-1,0-1.9-0.9-1.9-1.9v-2.5c0-1.1,0.9-1.9,1.9-1.9h13.7V16.3H99.5z"/>
</g>
<g>
	<path fill="#FDC30F" stroke="#FDC30F" stroke-width="2" stroke-miterlimit="10" d="M85.6,28.5H66.9c-0.7,0-1.2,0.5-1.2,1.2
		c0,0.7,0.5,1.2,1.2,1.2h18.7c2.4,0,5,2.6,5,5v15.6c0,3,0,4.4-0.7,5.7c-0.7,1.4-2.2,2.9-5.2,5.9l-28.1,28c-2.1,2.1-4.1,0.4-4.5,0
		L30.4,69.4c-0.4-0.4-2.1-2.4,0-4.5l2.4-2.4c6.7-6.7,24.6-24.6,25.6-25.6c0.5-0.5,0.5-1.2,0-1.7c-0.5-0.5-1.2-0.5-1.7,0
		c-1,1-19,19-25.6,25.6l-2.4,2.4c-1.6,1.6-2.1,3.6-1.5,5.5c0.5,1.4,1.4,2.3,1.5,2.4l21.8,21.8c0.1,0.1,1,1,2.4,1.5
		c0.6,0.2,1.1,0.3,1.7,0.3c1.4,0,2.7-0.6,3.9-1.7l28-28c6.3-6.3,6.6-6.6,6.6-13.3V35.9C93.1,32.2,89.4,28.5,85.6,28.5z"/>
	<path fill="#FDC30F" stroke="#FDC30F" stroke-width="2" stroke-miterlimit="10" d="M76.3,50.3c-2.8,0-5-2.3-5-5
		c0-0.7-0.5-1.2-1.2-1.2c-0.7,0-1.2,0.5-1.2,1.2c0,4.1,3.3,7.4,7.4,7.4c4.1,0,7.4-3.3,7.4-7.4c0-4.1-3.3-7.4-7.4-7.4
		c-0.7,0-1.2,0.5-1.2,1.2s0.5,1.2,1.2,1.2c2.8,0,5,2.3,5,5C81.3,48.1,79,50.3,76.3,50.3z"/>
	<path fill="#FDC30F" stroke="#FDC30F" stroke-width="2" stroke-miterlimit="10" d="M38.9,49.6c0.1,0,0.2,0,0.3,0
		c0.6-0.2,1-0.8,0.9-1.5c-1.9-7.5-1.4-13.8,1.3-17.3c1.6-2,3.9-3.1,6.9-3.1c7.3,0,22.1,13.2,27.2,18.3c0.5,0.5,1.2,0.5,1.7,0
		c0.5-0.5,0.5-1.2,0-1.7C76.4,43.6,58,25.4,48.2,25.4c-3.7,0-6.7,1.4-8.8,4c-3.2,4.1-3.8,11-1.8,19.3C37.8,49.2,38.3,49.6,38.9,49.6
		z"/>
</g>
</svg>
