<?xml version="1.0" encoding="utf-8"?>
<!-- Generator: Adobe Illustrator 18.1.0, SVG Export Plug-In . SVG Version: 6.00 Build 0)  -->
<!DOCTYPE svg PUBLIC "-//W3C//DTD SVG 1.1//EN" "http://www.w3.org/Graphics/SVG/1.1/DTD/svg11.dtd">
<svg version="1.1" id="Kickstarter_logo" xmlns="http://www.w3.org/2000/svg" xmlns:xlink="http://www.w3.org/1999/xlink" x="0px"
	 y="0px" viewBox="0 63.6 144 16.8" enable-background="new 0 63.6 144 16.8" xml:space="preserve">
<path id="Grey" fill="#FFFFFF" d="M5.3,69.4l3-4.3c0.6-0.8,1.3-1.2,2.2-1.2c0.7,0,1.4,0.2,1.9,0.8c0.5,0.5,0.8,1.1,0.8,1.8
	c0,0.5-0.2,1-0.4,1.4L10,71.8l3.3,4.2c0.3,0.4,0.5,0.9,0.5,1.4c0,0.7-0.2,1.4-0.8,1.9c-0.5,0.5-1.1,0.8-1.9,0.8
	c-0.8,0-1.4-0.2-1.8-0.8l-4-5v2.8c0,0.8-0.1,1.4-0.4,1.8c-0.5,0.8-1.2,1.2-2.2,1.2c-0.9,0-1.5-0.3-2-0.9C0.2,78.7,0,78,0,77.1V66.9
	c0-0.8,0.2-1.5,0.7-2.1s1.1-0.9,2-0.9c0.8,0,1.4,0.3,2,0.9c0.3,0.3,0.5,0.6,0.6,1c0.1,0.2,0.1,0.6,0.1,1.1L5.3,69.4L5.3,69.4z
	 M20,67.2v9.9c0,0.9-0.2,1.6-0.7,2.1c-0.5,0.6-1.1,0.9-2,0.9c-0.8,0-1.4-0.3-1.9-0.9c-0.4-0.5-0.7-1.2-0.7-2.2v-9.9
	c0-1.1,0.2-1.9,0.7-2.4c0.5-0.6,1.2-0.9,2-0.9s1.4,0.3,1.9,0.8C19.8,65.3,20,66.1,20,67.2z M29.5,63.6c1.9,0,3.7,0.6,5.4,1.9
	c1.3,1,1.9,2.1,1.9,3.2c0,0.9-0.4,1.7-1.2,2.2c-0.4,0.3-0.9,0.4-1.4,0.4c-0.4,0-0.8-0.1-1.2-0.3c-0.2-0.1-0.6-0.5-1.2-1.2
	c-0.6-0.6-1.4-1-2.2-1c-0.9,0-1.6,0.3-2.2,0.9c-0.6,0.6-0.9,1.4-0.9,2.2c0,0.9,0.3,1.6,0.9,2.2c0.6,0.6,1.3,0.9,2.2,0.9
	c0.7,0,1.4-0.2,2-0.7c0.4-0.4,0.8-0.7,1.1-1.1c0.4-0.3,0.9-0.5,1.5-0.5c0.7,0,1.3,0.2,1.9,0.7c0.5,0.5,0.8,1.1,0.8,1.8
	c0,1-0.6,2-1.7,3c-1.6,1.4-3.5,2.1-5.6,2.1c-1.3,0-2.5-0.3-3.7-0.8c-1.4-0.7-2.6-1.7-3.5-3.1C21.5,75.1,21,73.6,21,72
	c0-2.4,0.9-4.5,2.7-6.2C25.3,64.4,27.2,63.6,29.5,63.6z M43,69.4l3-4.3c0.6-0.8,1.3-1.2,2.2-1.2c0.7,0,1.4,0.2,1.9,0.8
	c0.5,0.5,0.8,1.1,0.8,1.8c0,0.5-0.2,1-0.4,1.4l-2.7,3.9L51,76c0.3,0.4,0.5,0.9,0.5,1.4c0,0.7-0.2,1.4-0.8,1.9
	c-0.5,0.5-1.1,0.8-1.9,0.8c-0.8,0-1.4-0.2-1.8-0.8l-4-5v2.8c0,0.8-0.1,1.4-0.4,1.8c-0.5,0.8-1.2,1.2-2.2,1.2c-0.9,0-1.5-0.3-2-0.9
	c-0.4-0.5-0.7-1.3-0.7-2.1V66.9c0-0.8,0.2-1.5,0.7-2.1c0.5-0.6,1.2-0.9,2-0.9c0.8,0,1.4,0.3,2,0.9c0.3,0.3,0.5,0.6,0.6,1
	c0.1,0.2,0.1,0.6,0.1,1.1V69.4z"/>
<path id="Green" fill="#FFFFFF" d="M54.7,73.9c0.6,0,1.2,0.2,1.9,0.8c0.8,0.6,1.4,1,1.7,1c0.5,0,0.7-0.2,0.7-0.7
	c0-0.2-0.1-0.5-0.4-0.6c-0.2-0.1-0.9-0.4-2.4-0.9c-2.3-0.8-3.5-2.3-3.5-4.6c0-1.7,0.6-3,1.8-4c1.1-0.8,2.4-1.3,4-1.3
	c1.4,0,2.6,0.3,3.6,1c1,0.6,1.5,1.5,1.5,2.6c0,0.6-0.2,1.1-0.6,1.6c-0.4,0.4-0.9,0.6-1.5,0.6c-0.6,0-1.4-0.3-2.2-0.9
	c-0.5-0.4-0.9-0.6-1.1-0.6c-0.4,0-0.6,0.2-0.6,0.6s0.5,0.8,1.6,1.1c1.5,0.5,2.6,1,3.4,1.7c1.1,0.9,1.6,2.1,1.6,3.7
	c0,1.8-0.6,3.1-1.8,4.1c-1.1,0.9-2.6,1.4-4.3,1.4s-3.3-0.5-4.4-1.4c-0.9-0.8-1.4-1.6-1.4-2.6c0-0.7,0.2-1.2,0.7-1.7
	C53.5,74.2,54.1,73.9,54.7,73.9z M68.8,68.9h-1.4c-0.8,0-1.4-0.2-1.9-0.6c-0.5-0.5-0.8-1-0.8-1.8c0-0.5,0.1-0.9,0.4-1.3
	c0.2-0.4,0.6-0.7,1-0.9s1.4-0.3,2.9-0.3h5.3c1.3,0,2.2,0.1,2.5,0.2c0.4,0.2,0.8,0.5,1,0.9c0.2,0.4,0.4,0.9,0.4,1.3
	c0,0.7-0.3,1.4-0.9,1.9c-0.4,0.4-1.1,0.6-2,0.6h-1.2v7.9c0,0.9-0.2,1.5-0.4,2c-0.5,0.8-1.2,1.2-2.2,1.2c-1,0-1.7-0.4-2.2-1.1
	c-0.3-0.5-0.5-1.1-0.5-2.1V68.9z M81.6,77.9c-0.2,0.6-0.5,1-0.8,1.3c-0.5,0.6-1.2,0.9-1.9,0.9c-0.9,0-1.7-0.4-2.2-1.1
	c-0.3-0.4-0.5-1-0.5-1.5c0-0.5,0.1-0.9,0.3-1.4l5-10.6c0.5-1,1.3-1.5,2.4-1.5c1.1,0,2,0.5,2.5,1.6l5.1,10.7c0.2,0.4,0.3,0.9,0.3,1.3
	c0,0.6-0.2,1.2-0.6,1.7c-0.5,0.6-1.2,1-2,1c-0.7,0-1.2-0.2-1.7-0.6c-0.3-0.3-0.7-0.8-1-1.5L81.6,77.9L81.6,77.9z M103.5,73.8l1.2,2
	c0.3,0.6,0.5,1.1,0.5,1.7c0,0.7-0.2,1.4-0.8,1.8c-0.5,0.5-1.1,0.7-1.9,0.7c-1,0-1.7-0.4-2.2-1.2l-2.2-3.6v2.2c0,0.7-0.2,1.4-0.7,1.9
	c-0.5,0.5-1.1,0.8-1.8,0.8c-0.9,0-1.6-0.3-2.1-1c-0.4-0.6-0.6-1.3-0.6-2.2V67c0-2,1.1-3,3.3-3h3.4c1.1,0,2.1,0.3,3.1,1
	c1,0.6,1.6,1.4,2.1,2.5c0.3,0.8,0.5,1.5,0.5,2.3C105.2,71.2,104.6,72.6,103.5,73.8z M109.7,68.9h-1.4c-0.8,0-1.4-0.2-1.9-0.6
	c-0.5-0.5-0.8-1-0.8-1.8c0-0.5,0.1-0.9,0.4-1.3c0.2-0.4,0.6-0.7,1-0.9s1.4-0.3,2.9-0.3h5.3c1.3,0,2.2,0.1,2.5,0.2
	c0.4,0.2,0.8,0.5,1,0.9c0.2,0.4,0.4,0.9,0.4,1.3c0,0.7-0.3,1.4-0.9,1.9c-0.4,0.4-1.1,0.6-2,0.6H115v7.9c0,0.9-0.2,1.5-0.4,2
	c-0.5,0.8-1.2,1.2-2.2,1.2c-1,0-1.7-0.4-2.2-1.1c-0.3-0.5-0.5-1.1-0.5-2.1V68.9z M125.3,75.1h2.4c1,0,1.7,0.2,2.2,0.6
	c0.6,0.5,0.9,1.1,0.9,1.9s-0.3,1.4-0.9,1.9c-0.4,0.4-1.2,0.6-2.2,0.6h-4.1c-1,0-1.6-0.1-2-0.2c-0.7-0.3-1.2-0.8-1.4-1.4
	c-0.2-0.4-0.2-1.1-0.2-2.1v-8.7c0-0.7,0-1.2,0.1-1.4c0.1-0.5,0.3-0.9,0.6-1.3c0.4-0.4,0.9-0.6,1.4-0.8c0.3-0.1,0.8-0.1,1.7-0.1h3.1
	c0.9,0,1.4,0,1.5,0c0.6,0.1,1,0.2,1.4,0.5c0.6,0.5,1,1.1,1,1.9c0,0.8-0.3,1.5-0.8,1.9c-0.5,0.4-1.2,0.6-2,0.6h-2.6V70h2.1
	c0.6,0,1.1,0.2,1.5,0.5c0.4,0.3,0.6,0.8,0.6,1.4c0,1.3-0.8,1.9-2.3,1.9h-1.9L125.3,75.1L125.3,75.1z M142.2,73.8l1.2,2
	c0.3,0.6,0.5,1.1,0.5,1.7c0,0.7-0.2,1.4-0.8,1.8c-0.5,0.5-1.1,0.7-1.9,0.7c-1,0-1.7-0.4-2.2-1.2l-2.2-3.6v2.2c0,0.7-0.2,1.4-0.7,1.9
	c-0.5,0.5-1.1,0.8-1.8,0.8c-0.9,0-1.6-0.3-2.1-1c-0.4-0.6-0.6-1.3-0.6-2.2V67c0-2,1.1-3,3.3-3h3.4c1.1,0,2.1,0.3,3.1,1
	c1,0.6,1.6,1.4,2.1,2.5c0.3,0.8,0.5,1.5,0.5,2.3C144,71.2,143.4,72.6,142.2,73.8z"/>
</svg>
