<?xml version="1.0" encoding="utf-8"?>
<!-- Generator: Adobe Illustrator 18.1.0, SVG Export Plug-In . SVG Version: 6.00 Build 0)  -->
<!DOCTYPE svg PUBLIC "-//W3C//DTD SVG 1.1//EN" "http://www.w3.org/Graphics/SVG/1.1/DTD/svg11.dtd">
<svg version="1.1" id="Layer_1" xmlns="http://www.w3.org/2000/svg" xmlns:xlink="http://www.w3.org/1999/xlink" x="0px" y="0px"
	 viewBox="0 0 100 142" enable-background="new 0 0 100 142" xml:space="preserve">
<g>
	<path fill="#E8F5FB" d="M100,140c0,1.1-0.9,2-2,2H2c-1.1,0-2-0.9-2-2V2c0-1.1,0.9-2,2-2h96c1.1,0,2,0.9,2,2V140z"/>
</g>
<circle fill="#BFE1F3" cx="50" cy="50" r="40"/>
<g>
	<path opacity="0.5" fill="#FFFFFF" d="M81.2,41.9c-1.1-4.5-3.3-7.9-7.8-7.9h-5.9v6.9c0,5.3-4.5,9.8-9.8,9.8H42.1
		c-4.3,0-7.8,3.6-7.8,7.9v14.8c0,4.2,3.7,6.7,7.8,7.9c5,1.5,9.7,1.7,15.6,0c4-1.1,7.8-3.4,7.8-7.9v-5.9H49.9v-2h15.6h7.8
		c4.6,0,6.3-3.2,7.8-7.9C82.9,52.8,82.8,48.1,81.2,41.9z M58.7,71.4c1.6,0,2.9,1.3,2.9,3s-1.3,3-2.9,3c-1.6,0-2.9-1.3-2.9-3
		C55.8,72.8,57.1,71.4,58.7,71.4z"/>
	<path fill="#FFFFFF" d="M57.8,18.1c-5.4-0.9-11.1-0.8-15.6,0c-6.6,1.1-7.8,3.6-7.8,8.1h0v5.9H50v2H34.3h-5.9
		c-4.5,0-8.5,2.8-9.8,7.9c-1.4,5.9-1.5,9.6,0,15.7c1.1,4.6,3.8,7.9,8.3,7.9h5.4v-7.1c0-5.1,4.5-9.6,9.8-9.6h15.6
		c4.4,0,7.8-3.5,7.8-7.9V26.2C65.6,22,62,18.8,57.8,18.1z M41.1,28.1c-1.6,0-2.9-1.3-2.9-3s1.3-3,2.9-3c1.6,0,2.9,1.3,2.9,3
		S42.7,28.1,41.1,28.1z"/>
</g>
</svg>
