<?xml version="1.0" encoding="utf-8"?>
<!-- Generator: Adobe Illustrator 18.1.0, SVG Export Plug-In . SVG Version: 6.00 Build 0)  -->
<!DOCTYPE svg PUBLIC "-//W3C//DTD SVG 1.1//EN" "http://www.w3.org/Graphics/SVG/1.1/DTD/svg11.dtd">
<svg version="1.1" id="Layer_1" xmlns="http://www.w3.org/2000/svg" xmlns:xlink="http://www.w3.org/1999/xlink" x="0px" y="0px"
	 viewBox="0 0 100 142" enable-background="new 0 0 100 142" xml:space="preserve">
<g>
	<path fill="#E8F5FB" d="M100,140c0,1.1-0.9,2-2,2H2c-1.1,0-2-0.9-2-2V2c0-1.1,0.9-2,2-2h96c1.1,0,2,0.9,2,2V140z"/>
</g>
<circle fill="#BFE1F3" cx="50" cy="50" r="40"/>
<g>
	<polygon opacity="0.5" fill="#EBEBEB" points="50,51.6 42.4,51.6 41.8,45.6 50,45.6 50,39.9 50,39.9 35.5,39.9 35.7,41.4 
		37.1,57.3 50,57.3 	"/>
	<polygon opacity="0.5" fill="#EBEBEB" points="50,66.5 50,66.5 43.6,64.8 43.1,60.2 40,60.2 37.4,60.2 38.2,69.3 50,72.5 50,72.5 	
		"/>
	<g>
		<polygon fill="#FFFFFF" points="42.4,51.6 50,51.6 50,45.6 41.8,45.6 		"/>
		<path fill="#FFFFFF" d="M27,30.3l4.2,47L50,82.5l18.9-5.2l4.2-47H27z M65.2,74.3L50,78.5v-6l0,0l-11.8-3.3l-0.8-9.1H40h3.1
			l0.4,4.6l6.4,1.7l0,0v-9.2H37.1l-1.4-15.9l-0.1-1.5H50h0v-5.8h18.8L65.2,74.3z"/>
	</g>
	<path fill="#FFFFFF" d="M31.3,17.5h2.9v2.9h2.7v-2.9h2.9v8.8h-2.9v-2.9h-2.7v2.9h-2.9V17.5L31.3,17.5z"/>
	<path fill="#FFFFFF" d="M43.7,20.4h-2.6v-2.9h8.1v2.9h-2.6v5.9h-2.9L43.7,20.4L43.7,20.4z"/>
	<path fill="#FFFFFF" d="M50.4,17.5h3.1l1.9,3.1l1.9-3.1h3.1v8.8h-2.9v-4.3l-2,3.1h-0.1l-2-3.1v4.3h-2.9L50.4,17.5L50.4,17.5z"/>
	<path fill="#FFFFFF" d="M61.8,17.5h2.9v5.9h4.1v2.9h-7.1L61.8,17.5L61.8,17.5z"/>
	<polygon fill="#FFFFFF" points="50,51.6 50,57.3 57.1,57.3 56.4,64.8 50,66.5 50,72.5 61.8,69.3 61.9,68.3 63.2,53.1 63.4,51.6 
		61.8,51.6 	"/>
	<polygon fill="#FFFFFF" points="50,39.9 50,43.5 50,45.6 50,45.6 63.9,45.6 63.9,45.6 63.9,45.6 64,44.4 64.3,41.4 64.4,39.9 	"/>
</g>
</svg>
