<?xml version="1.0" encoding="utf-8"?>
<!-- Generator: Adobe Illustrator 18.1.0, SVG Export Plug-In . SVG Version: 6.00 Build 0)  -->
<!DOCTYPE svg PUBLIC "-//W3C//DTD SVG 1.1//EN" "http://www.w3.org/Graphics/SVG/1.1/DTD/svg11.dtd">
<svg version="1.1" id="Layer_1" xmlns="http://www.w3.org/2000/svg" xmlns:xlink="http://www.w3.org/1999/xlink" x="0px" y="0px"
	 viewBox="0 0 100 142" enable-background="new 0 0 100 142" xml:space="preserve">
<g>
	<path fill="#E8F5FB" d="M100,140c0,1.1-0.9,2-2,2H2c-1.1,0-2-0.9-2-2V2c0-1.1,0.9-2,2-2h96c1.1,0,2,0.9,2,2V140z"/>
</g>
<circle fill="#BFE1F3" cx="50" cy="50" r="40"/>
<g>
	<circle fill="#FFFFFF" cx="45.8" cy="36" r="7"/>
	<path fill="#FFFFFF" d="M67.1,50c0,3.9-3.1,7-7,7c-3.9,0-7-3.1-7-7c0-3.9,3.2-7,7-7C64,43,67.1,46.1,67.1,50z"/>
	<circle fill="#FFFFFF" cx="45.8" cy="64.1" r="7"/>
	<g>
		<path fill="#FFFFFF" d="M50,17.5c-17.9,0-32.5,14.6-32.5,32.5c0,17.9,14.6,32.5,32.5,32.5C67.9,82.5,82.5,68,82.5,50
			C82.5,32.1,68,17.5,50,17.5z M68.3,68.3C63.6,73,57.2,75.9,50,75.9c-7.2,0-13.6-2.9-18.3-7.6C27,63.6,24.1,57.2,24.1,50
			c0-7.2,2.9-13.6,7.6-18.3c4.7-4.7,11.1-7.6,18.3-7.6c7.2,0,13.6,2.9,18.3,7.6c4.7,4.7,7.6,11.1,7.6,18.3
			C75.9,57.2,73,63.6,68.3,68.3z"/>
	</g>
</g>
</svg>
