<?xml version="1.0" encoding="UTF-8" standalone="no"?>
<svg width="110px" height="110px" viewBox="0 0 110 110" version="1.1" xmlns="http://www.w3.org/2000/svg" xmlns:xlink="http://www.w3.org/1999/xlink" xmlns:sketch="http://www.bohemiancoding.com/sketch/ns">
    <!-- Generator: Sketch 3.1.1 (8761) - http://www.bohemiancoding.com/sketch -->
    <title>Artboard</title>
    <desc>Created with Sketch.</desc>
    <defs></defs>
    <g id="Page-2" stroke="none" stroke-width="1" fill="none" fill-rule="evenodd" sketch:type="MSPage">
        <g id="Artboard" sketch:type="MSArtboardGroup" fill="#FFFFFF">
            <g id="path7990_1_-+-path7992_2_-+-Fill-15-+-Fill-16" sketch:type="MSLayerGroup">
                <g id="path7990_1_-+-path7992_2_" sketch:type="MSShapeGroup">
                    <path d="M28.4052187,14.7619548 C28.4052187,7.16840643 30.4632833,2.98130965 41.7471542,1.06518062 C49.4116704,-0.283206474 59.2052187,-0.425141958 68.3600574,1.06518062 C75.5987671,2.27163224 81.7019929,7.66518062 81.7019929,14.7619548 L81.7019929,39.8135677 C81.7019929,47.1942129 75.8116704,53.2264709 68.3600574,53.2264709 L41.7471542,53.2264709 C32.734251,53.2264709 25.1407026,60.8909871 25.1407026,69.6200193 L25.1407026,81.6845355 L15.9858639,81.6845355 C8.25038003,81.6845355 3.70844455,76.0780838 1.86328326,68.2716322 C-0.691555455,57.7684064 -0.549619971,51.5232451 1.86328326,41.5167935 C3.99231551,32.7877613 10.734251,28.1038903 18.4697349,28.1038903 L28.4761865,28.1038903 L55.0890897,28.1038903 L55.0890897,24.7684064 L28.4761865,24.7684064 L28.4761865,14.7619548 L28.4052187,14.7619548 Z M34.7741935,12.8451613 C34.7741935,10.0774194 36.9741935,7.80645161 39.7419355,7.80645161 C42.5096774,7.80645161 44.7096774,10.0774194 44.7096774,12.8451613 C44.7096774,15.6129032 42.4387097,17.883871 39.7419355,17.883871 C36.9741935,17.883871 34.7741935,15.6129032 34.7741935,12.8451613 Z" id="path7990_1_"></path>
                    <path d="M81.683871,81.2580645 L55.0709677,81.2580645 L55.0709677,84.5935484 L81.683871,84.5935484 L81.683871,94.6709677 C81.683871,102.264516 75.083871,106.167742 68.3419355,108.083871 C58.2645161,110.993548 50.1741935,110.567742 41.7290323,108.083871 C34.7032258,106.025806 28.3870968,101.83871 28.3870968,94.6709677 L28.3870968,69.5483871 C28.3870968,62.3096774 34.4193548,56.1354839 41.7290323,56.1354839 L68.3419355,56.1354839 C77.2129032,56.1354839 84.9483871,48.4709677 84.9483871,39.3870968 L84.9483871,27.6774194 L94.9548387,27.6774194 C102.690323,27.6774194 106.380645,33.4258065 108.296774,41.0903226 C110.993548,51.6645161 111.064516,59.6129032 108.296774,67.8451613 C105.6,75.8645161 102.76129,81.2580645 94.9548387,81.2580645 L81.683871,81.2580645 Z M64.5806452,96.5870968 C64.5806452,93.8193548 66.8516129,91.5483871 69.5483871,91.5483871 C72.316129,91.5483871 74.516129,93.8193548 74.516129,96.5870968 C74.516129,99.3548387 72.316129,101.625806 69.5483871,101.625806 C66.8516129,101.625806 64.5806452,99.4258065 64.5806452,96.5870968 Z" id="path7992_2_" fill-opacity="0.75"></path>
                </g>
            </g>
        </g>
    </g>
</svg>