<?xml version="1.0" encoding="utf-8"?>
<!-- Generator: Adobe Illustrator 18.1.0, SVG Export Plug-In . SVG Version: 6.00 Build 0)  -->
<!DOCTYPE svg PUBLIC "-//W3C//DTD SVG 1.1//EN" "http://www.w3.org/Graphics/SVG/1.1/DTD/svg11.dtd">
<svg version="1.1" id="Layer_1" xmlns="http://www.w3.org/2000/svg" xmlns:xlink="http://www.w3.org/1999/xlink" x="0px" y="0px"
	 viewBox="0 0 100 142" enable-background="new 0 0 100 142" xml:space="preserve">
<g>
	<path fill="#E8F5FB" d="M100,140c0,1.1-0.9,2-2,2H2c-1.1,0-2-0.9-2-2V2c0-1.1,0.9-2,2-2h96c1.1,0,2,0.9,2,2V140z"/>
</g>
<circle fill="#BFE1F3" cx="50" cy="50" r="40"/>
<path fill="#FFFFFF" d="M57.8,59.2c2,3.2,4.6,5.6,9.1,5.6c3.8,0,6.3-1.9,6.3-4.6c0-3.2-2.5-4.3-6.7-6.2l-2.3-1
	c-6.7-2.8-11.1-6.4-11.1-14c0-7,5.3-12.2,13.6-12.2c5.9,0,10.1,2.1,13.2,7.4L72.6,39c-1.6-2.8-3.3-4-6-4c-2.7,0-4.4,1.7-4.4,4
	c0,2.8,1.7,3.9,5.7,5.6l2.3,1c7.9,3.4,12.3,6.8,12.3,14.6c0,8.3-6.6,12.9-15.4,12.9c-8.6,0-14.2-4.1-16.9-9.5L57.8,59.2z M25,60
	c1.5,2.6,2.8,4.8,6,4.8c3,0,5-1.2,5-5.8V27.5h9.3v31.6c0,9.6-5.6,14-13.8,14c-7.4,0-11.7-3.8-13.9-8.5L25,60z"/>
</svg>
