<?xml version="1.0" encoding="utf-8"?>
<!-- Generator: Adobe Illustrator 18.1.0, SVG Export Plug-In . SVG Version: 6.00 Build 0)  -->
<!DOCTYPE svg PUBLIC "-//W3C//DTD SVG 1.1//EN" "http://www.w3.org/Graphics/SVG/1.1/DTD/svg11.dtd">
<svg version="1.1" id="Layer_1" xmlns="http://www.w3.org/2000/svg" xmlns:xlink="http://www.w3.org/1999/xlink" x="0px" y="0px"
	 viewBox="0 0 100 142" enable-background="new 0 0 100 142" xml:space="preserve">
<g>
	<path fill="#E8F5FB" d="M100,140c0,1.1-0.9,2-2,2H2c-1.1,0-2-0.9-2-2V2c0-1.1,0.9-2,2-2h96c1.1,0,2,0.9,2,2V140z"/>
</g>
<circle fill="#BFE1F3" cx="50" cy="50" r="40"/>
<g>
	<path fill="#FFFFFF" d="M43.7,17.5h10.6v49.2c-5.5,1-9.5,1.4-13.8,1.4c-13,0-19.7-5.9-19.7-17.1c0-10.8,7.2-17.9,18.3-17.9
		c1.7,0,3,0.1,4.6,0.6C43.7,33.7,43.7,17.5,43.7,17.5z M43.7,42.3c-1.2-0.4-2.3-0.6-3.6-0.6c-5.4,0-8.5,3.3-8.5,9.1
		c0,5.7,3,8.8,8.4,8.8c1.2,0,2.1-0.1,3.7-0.3V42.3z"/>
	<path fill="#FFFFFF" d="M71.2,33.9v24.6c0,8.5-0.6,12.6-2.5,16.1c-1.7,3.4-4,5.5-8.7,7.9l-9.9-4.7c4.7-2.2,7-4.1,8.4-7.1
		c1.5-3,2-6.6,2-15.8v-21H71.2z M60.6,17.6h10.6v10.9H60.6V17.6z"/>
</g>
</svg>
