<?xml version="1.0" encoding="utf-8"?>
<!-- Generator: Adobe Illustrator 18.1.0, SVG Export Plug-In . SVG Version: 6.00 Build 0)  -->
<!DOCTYPE svg PUBLIC "-//W3C//DTD SVG 1.1//EN" "http://www.w3.org/Graphics/SVG/1.1/DTD/svg11.dtd">
<svg version="1.1" id="Layer_1" xmlns="http://www.w3.org/2000/svg" xmlns:xlink="http://www.w3.org/1999/xlink" x="0px" y="0px"
	 viewBox="0 0 100 142" enable-background="new 0 0 100 142" xml:space="preserve">
<g>
	<path fill="#E8F5FB" d="M100,140c0,1.1-0.9,2-2,2H2c-1.1,0-2-0.9-2-2V2c0-1.1,0.9-2,2-2h96c1.1,0,2,0.9,2,2V140z"/>
</g>
<circle fill="#BFE1F3" cx="50" cy="50" r="40"/>
<g>
	<path fill="#FFFFFF" d="M50,33.1c-17.9,0-32.5,7.6-32.5,16.9S32.1,66.9,50,66.9S82.5,59.3,82.5,50S67.9,33.1,50,33.1z M35.8,55.3
		h-4L30.9,60h-4.2l3.6-18h8.2c3.6,0.2,5.3,2,5.3,5.1C43.8,52.4,39.5,55.6,35.8,55.3z M51.8,55.3l1.6-8.2c0.2-1.1,0.2-1.8-1.3-1.8
		h-3.3l-2,10h-4.2l3.6-18h4.2L49.3,42h4c3.6,0.2,4.9,2,4.5,4.2l-1.6,9.1H51.8z M65.6,55.3h-4L60.7,60h-4.2L60,42h8.2
		c3.6,0.2,5.3,2,5.3,5.1C73.6,52.4,69.4,55.6,65.6,55.3z"/>
	<path fill="#FFFFFF" d="M62.5,52l1.1-6.7h2.9c1.6,0,2.7,0.7,2.7,2c-0.2,3.8-2,4.5-4,4.7H62.5z"/>
	<path fill="#FFFFFF" d="M32.6,52l1.1-6.7h2.9c1.6,0,2.7,0.7,2.7,2c-0.2,3.8-2,4.5-4,4.7H32.6z"/>
</g>
</svg>
