<?xml version="1.0" encoding="utf-8"?>
<!-- Generator: Adobe Illustrator 18.1.0, SVG Export Plug-In . SVG Version: 6.00 Build 0)  -->
<!DOCTYPE svg PUBLIC "-//W3C//DTD SVG 1.1//EN" "http://www.w3.org/Graphics/SVG/1.1/DTD/svg11.dtd">
<svg version="1.1" id="Layer_1" xmlns="http://www.w3.org/2000/svg" xmlns:xlink="http://www.w3.org/1999/xlink" x="0px" y="0px"
	 viewBox="0 0 100 142" enable-background="new 0 0 100 142" xml:space="preserve">
<g>
	<path fill="#E8F5FB" d="M100,140c0,1.1-0.9,2-2,2H2c-1.1,0-2-0.9-2-2V2c0-1.1,0.9-2,2-2h96c1.1,0,2,0.9,2,2V140z"/>
</g>
<circle fill="#BFE1F3" cx="50" cy="50" r="40"/>
<path fill="#FFFFFF" d="M17.5,50.1c-0.1-6.9,1.8-13.1,5.7-18.7c0.9-1.3,2.1-2.4,3.2-3.7c1.5-1.7,3.1-3.2,5-4.4
	c4.2-2.9,8.8-4.8,13.8-5.4c5.3-0.6,10.5-0.4,15.6,1.4c5,1.7,9.3,4.6,12.9,8.4c2.4,2.5,4.4,5.3,5.9,8.5c1.6,3.4,2.6,7,2.8,10.8
	c0.4,5.4-0.2,10.6-2.3,15.6c-1.5,3.6-3.6,6.7-6.3,9.5c-4,4.3-8.8,7.3-14.5,9c-4.2,1.2-8.4,1.4-12.7,1.1c-5.7-0.4-10.8-2.3-15.4-5.7
	c-5.6-4-9.7-9.2-12-15.7C18.1,57.8,17.4,54.5,17.5,50.1z M33.8,63c0,0.1,0.1,0.1,0.1,0.2c1-0.1,2-0.2,2.9-0.2
	c5.3-0.1,10.5-0.2,15.8-0.3c2.3,0,4.6,0,6.8,0.1c3.6,0.1,7.1,0.3,10.7,0.5c1.9,0.1,3.7,0.2,5.6,0.3c0.7,0.1,1-0.1,1.3-0.7
	c2.7-5.7,3.8-11.6,2.6-17.9c-0.7-3.7-2-7.2-4-10.5c-0.2-0.3-0.3-0.5-0.7-0.3c-1.6,0.8-3.4,1.3-4.9,2.3c-3.7,2.3-7.4,4.7-11.1,7
	c-5.7,3.6-11,7.9-16.3,12c-2.6,2-5.1,4.3-7.6,6.4C34.6,62.3,34.2,62.7,33.8,63z M63.2,27.9c0-0.1,0-0.2,0-0.3
	c-0.6-0.1-1.2-0.3-1.8-0.4c-2-0.2-4-0.4-6-0.6c-1.9-0.1-3.7-0.2-5.6-0.2c-1.5,0-3,0.1-4.5,0.2c-2.9,0.3-5.7,0.6-8.6,1.1
	c-2.7,0.5-5.3,1.3-7.7,2.5c-1.1,0.6-2.4,1-3.2,2.1c-1,1.5-1.9,3-2.7,4.6c-2,3.8-3,7.9-3.1,12.2c-0.1,3.8,0.6,7.6,2,11.2
	c0.1,0.3,0.3,0.6,0.5,1.1c0.1-0.3,0.2-0.5,0.3-0.7c0.3-0.8,0.5-1.6,1-2.3c1.3-1.8,2.6-3.7,4.1-5.4c2.8-3.2,6.1-5.9,9.4-8.6
	c4.4-3.5,8.9-6.8,13.7-9.6c3.9-2.3,7.9-4.4,11.8-6.6C62.9,28.1,63,28,63.2,27.9z M26,67.7c3.4,5.5,13.9,13.2,26.3,12.1
	C61,79,68.2,75.1,73.7,68.2C57.8,67.2,41.9,67,26,67.7z M32.1,26.2c11.3-3.9,22.6-4,34.1-1.1c-4.6-3.1-9.8-4.8-15.3-5
	C44,19.9,37.7,22.1,32.1,26.2z"/>
</svg>
