<?xml version="1.0" encoding="utf-8"?>
<!-- Generator: Adobe Illustrator 18.1.0, SVG Export Plug-In . SVG Version: 6.00 Build 0)  -->
<!DOCTYPE svg PUBLIC "-//W3C//DTD SVG 1.1//EN" "http://www.w3.org/Graphics/SVG/1.1/DTD/svg11.dtd">
<svg version="1.1" id="Layer_1" xmlns="http://www.w3.org/2000/svg" xmlns:xlink="http://www.w3.org/1999/xlink" x="0px" y="0px"
	 viewBox="0 0 100 142" enable-background="new 0 0 100 142" xml:space="preserve">
<g>
	<path fill="#E8F5FB" d="M100,140c0,1.1-0.9,2-2,2H2c-1.1,0-2-0.9-2-2V2c0-1.1,0.9-2,2-2h96c1.1,0,2,0.9,2,2V140z"/>
</g>
<circle fill="#BFE1F3" cx="50" cy="50" r="40"/>
<g>
	<g>
		<path fill="#FFFFFF" d="M63.1,19.9h-3.8l4,4.3v2.1H55v-2.4h4l-4-4.3v-2.1h8V19.9L63.1,19.9z M53.4,19.9h-3.8l4,4.3v2.1h-8.2v-2.4
			h4l-4-4.3v-2.1h8L53.4,19.9L53.4,19.9z M43.8,20h-4.1v3.8h4.1v2.5h-7.1v-8.8h7.1V20z"/>
	</g>
	<g>
		<polygon fill="#FFFFFF" points="50,51.1 57.6,51.1 58.2,45.2 50,45.2 50,39.5 50,39.5 64.5,39.5 64.3,41 62.9,56.9 50,56.9 		"/>
		<polygon fill="#FFFFFF" points="57.1,56.7 56.4,64.4 50,66.1 50,72.1 61.8,68.8 61.9,67.9 62.9,56.7 		"/>
		<g opacity="0.5">
			<polygon fill="#FFFFFF" points="50,66.1 50,66.1 43.6,64.4 43.2,59.8 40.1,59.8 37.4,59.8 38.2,68.8 50,72.1 50,72.1 			"/>
			<polygon fill="#FFFFFF" points="50,39.5 50,43.1 50,45.2 50,45.2 36.1,45.2 36.1,45.2 36.1,45.2 36,44 35.7,41 35.6,39.5 			"/>
			<polygon fill="#FFFFFF" points="50,51.1 50,54.7 50,56.9 50,56.9 43.7,56.9 43.7,56.9 43.7,56.9 43.5,55.6 43.3,52.7 43.1,51.1 
							"/>
		</g>
		<path fill="#FFFFFF" d="M27,30.3l4.2,47L50,82.5l18.9-5.2l4.2-47H27z M65.2,74.3L50,78.5v-6.4l-11.8-3.3l-0.8-9.1h2.7h3.1l0.4,4.6
			l6.4,1.7V45.2H36.1h0L36,44L35.7,41l-0.1-1.5H50v-5.4h18.8L65.2,74.3z M43.1,51.1H50v3.6v2.2v0h-6.3h0l-0.1-1.3l-0.3-2.9
			L43.1,51.1z"/>
	</g>
</g>
</svg>
