<?xml version="1.0" encoding="utf-8"?>
<!-- Generator: Adobe Illustrator 18.1.0, SVG Export Plug-In . SVG Version: 6.00 Build 0)  -->
<!DOCTYPE svg PUBLIC "-//W3C//DTD SVG 1.1//EN" "http://www.w3.org/Graphics/SVG/1.1/DTD/svg11.dtd">
<svg version="1.1" id="Layer_1" xmlns="http://www.w3.org/2000/svg" xmlns:xlink="http://www.w3.org/1999/xlink" x="0px" y="0px"
	 width="150px" height="54.4px" viewBox="301.3 284.6 150 54.4" enable-background="new 301.3 284.6 150 54.4" xml:space="preserve"
	>
<g id="clearance_space">
	<rect x="-328.6" y="173.5" fill="none" width="1165.9" height="693.1"/>
</g>
<g id="art">
	<path fill="#474747" d="M355.7,311.8c0,15-12.2,27.2-27.2,27.2c-15,0-27.2-12.1-27.2-27.2s12.1-27.2,27.2-27.2
		S355.7,296.8,355.7,311.8"/>
	<path fill="#474747" d="M362.3,303.1v-11.8h5.3v10.3c0,2,0.2,4,2.9,4c2.7,0,2.9-2,2.9-4v-10.3h5.3v11.8c0,4.6-2.9,7.1-8.2,7.1
		C365.1,310.2,362.3,307.7,362.3,303.1"/>
	<path fill="#474747" d="M380.1,307.5l2.5-3.6c1,1.2,2.5,2.2,4.4,2.2c1.4,0,2.2-0.6,2.2-1.7c0-1.3-1.2-1.7-3.2-2.3
		c-2.7-0.8-5.1-2.2-5.1-5.4c0-3.5,2.9-5.9,7-5.9c2.8,0,4.9,0.9,6.3,2.2l-2.4,3.6c-0.8-0.9-2.1-1.6-3.6-1.6c-1.4,0-2,0.6-2,1.3
		c0,1.2,1.4,1.5,2.9,2c3,1,5.3,2.3,5.3,5.7c0,3.6-2.5,6.2-7.2,6.2C383.9,310.2,381.3,308.8,380.1,307.5"/>
	<path fill="#474747" d="M401.6,291.3h5.8l6.9,18.5h-5.5l-0.9-2.7h-7l-0.9,2.7h-5.4L401.6,291.3z M406.6,303l-1.4-4.5
		c-0.3-0.9-0.5-2-0.6-2.8h-0.1c-0.1,0.8-0.3,1.9-0.6,2.8l-1.4,4.5H406.6z"/>
	<polygon fill="#474747" points="367,317.8 362.4,317.8 362.4,313.6 376.9,313.6 376.9,317.8 372.3,317.8 372.3,332.1 367,332.1 	
		"/>
	<path fill="#474747" d="M377.2,322.8c0-4.6,3.3-9.7,10.2-9.7s10.2,5.1,10.2,9.7c0,4.6-3.3,9.6-10.2,9.6S377.2,327.4,377.2,322.8
		 M392.1,322.8c0-3.3-2.2-5-4.8-5c-2.5,0-4.7,1.7-4.7,5c0,3.3,2.2,5,4.7,5C390,327.8,392.1,326.1,392.1,322.8"/>
	<path fill="#474747" d="M399.5,313.6h6.8c6.5,0,10.3,3.5,10.3,9.3c0,5.7-3.8,9.3-10.3,9.3h-6.8V313.6z M404.8,327.8h1.2
		c3.4,0,5.2-1.6,5.2-5s-1.8-5-5.2-5h-1.2V327.8z"/>
	<path fill="#474747" d="M422.8,313.6h5.9l6.9,18.5H430l-0.9-2.7h-7l-0.9,2.7h-5.4L422.8,313.6z M427.8,325.2l-1.4-4.5
		c-0.3-0.9-0.5-2-0.6-2.8h-0.1c-0.1,0.8-0.3,1.9-0.6,2.8l-1.4,4.5H427.8z"/>
	<path fill="#474747" d="M438.8,325.5l-6.9-12h5.8l2.5,4.6c0.5,1,1.2,2.4,1.4,3.5h0.1c0.1-1,0.9-2.4,1.4-3.5l2.5-4.6h5.7l-6.9,12
		v6.6h-5.6V325.5L438.8,325.5z"/>
</g>
</svg>
