<?xml version="1.0" encoding="utf-8"?>
<!-- Generator: Adobe Illustrator 18.1.0, SVG Export Plug-In . SVG Version: 6.00 Build 0)  -->
<!DOCTYPE svg PUBLIC "-//W3C//DTD SVG 1.1//EN" "http://www.w3.org/Graphics/SVG/1.1/DTD/svg11.dtd">
<svg version="1.1" id="Layer_1" xmlns="http://www.w3.org/2000/svg" xmlns:xlink="http://www.w3.org/1999/xlink" x="0px" y="0px"
	 viewBox="-25 34 48 34" enable-background="new -25 34 48 34" xml:space="preserve">
<g>
	<circle fill="#09BCD4" cx="-14.3" cy="46.4" r="1.6"/>
	<g>
		<circle fill="#231F20" cx="-14.3" cy="61" r="1.6"/>
		<circle fill="#FEC111" cx="-9.8" cy="61" r="1.6"/>
		<circle fill="#231F20" cx="-5.2" cy="61" r="1.6"/>
	</g>
	<g>
		<circle fill="#231F20" cx="1.9" cy="51.3" r="1.6"/>
		<circle fill="#231F20" cx="-14.3" cy="51.3" r="1.6"/>
		<path fill="#38A4DD" d="M-2.9,52.8h-6.7c-0.8,0-1.5-0.7-1.5-1.5v-0.2c0-0.8,0.7-1.5,1.5-1.5h6.7c0.8,0,1.5,0.7,1.5,1.5v0.2
			C-1.4,52.2-2.1,52.8-2.9,52.8z"/>
	</g>
	<g>
		<g>
			<circle fill="#903F98" cx="-3.3" cy="56.2" r="1.6"/>
			<path fill="#231F20" d="M-7.8,57.7h-6.7c-0.8,0-1.5-0.7-1.5-1.5V56c0-0.8,0.7-1.5,1.5-1.5h6.7c0.8,0,1.5,0.7,1.5,1.5v0.2
				C-6.3,57-7,57.7-7.8,57.7z"/>
			<circle fill="#F05455" cx="12.4" cy="56.2" r="1.6"/>
			<path fill="#231F20" d="M7.9,57.7H1.2c-0.8,0-1.5-0.7-1.5-1.5V56c0-0.8,0.7-1.5,1.5-1.5h6.7c0.8,0,1.5,0.7,1.5,1.5v0.2
				C9.4,57,8.7,57.7,7.9,57.7z"/>
		</g>
	</g>
	<g>
		<path fill="#8BC249" d="M-7.8,43.1h-6.7c-0.8,0-1.5-0.7-1.5-1.5v-0.3c0-0.8,0.7-1.5,1.5-1.5h6.7c0.8,0,1.5,0.7,1.5,1.5v0.2
			C-6.3,42.4-7,43.1-7.8,43.1z"/>
		<path fill="#231F20" d="M3.2,43.1h-6.7c-0.8,0-1.5-0.7-1.5-1.5v-0.3c0-0.8,0.7-1.5,1.5-1.5h6.7c0.8,0,1.5,0.7,1.5,1.5v0.2
			C4.7,42.4,4,43.1,3.2,43.1z"/>
	</g>
</g>
<path fill="#231F20" d="M-25,67.8V34.3c0-0.2,0.1-0.3,0.2-0.3h8c0.1,0,0.2,0.1,0.2,0.2V37c0,0.1-0.1,0.2-0.2,0.2h-4.5
	c-0.1,0-0.1,0-0.1,0.1v27.2c0,0.1,0,0.1,0.1,0.1h4.5c0.1,0,0.2,0.1,0.2,0.2v2.8c0,0.1-0.1,0.2-0.2,0.2h-8C-24.9,68-25,67.9-25,67.8z
	"/>
<path fill="#231F20" d="M14.6,67.8V65c0-0.1,0.1-0.2,0.2-0.2h4.5c0.1,0,0.1,0,0.1-0.1V37.4c0-0.1,0-0.1-0.1-0.1h-4.5
	c-0.1,0-0.2-0.1-0.2-0.2v-2.9c0-0.1,0.1-0.2,0.2-0.2h7.9c0.2,0,0.3,0.1,0.3,0.2v33.5c0,0.1-0.1,0.2-0.2,0.2h-7.9
	C14.7,68,14.6,67.9,14.6,67.8z"/>
</svg>
