<!-- Generator: Adobe Illustrator 18.1.0, SVG Export Plug-In  -->
<svg version="1.1"
	 xmlns="http://www.w3.org/2000/svg" xmlns:xlink="http://www.w3.org/1999/xlink" xmlns:a="http://ns.adobe.com/AdobeSVGViewerExtensions/3.0/"
	 x="0px" y="0px" width="132.6px" height="27.9px" viewBox="0 0 132.6 27.9" enable-background="new 0 0 132.6 27.9"
	 xml:space="preserve">
<defs>
</defs>
<g>
	<path fill="#010101" d="M23.5,27.5V8l-7.6,19.5h-2.5L5.8,8v19.5H0v-27h8.1l6.6,16.9l6.6-16.9h8.1v27H23.5z"/>
	<path fill="#010101" d="M34.6,27.5v-27h19.1v5.1H40.4v5.7h13.1v5.1H40.4v6.2h13.4v5.1H34.6z"/>
	<path fill="#010101" d="M73.5,27.5l-5.3-9.6H64v9.6h-5.8v-27h12.6c5.6,0,9.1,3.7,9.1,8.7c0,4.7-3,7.3-6,8l6.1,10.3H73.5z M74.1,9.1
		c0-2.2-1.7-3.6-4-3.6H64v7.3h6.1C72.3,12.8,74.1,11.4,74.1,9.1z"/>
	<path fill="#010101" d="M83,14c0-8.3,6.3-14,14.4-14c5.9,0,9.4,3.2,11.3,6.6L103.7,9c-1.1-2.2-3.6-3.9-6.3-3.9
		c-4.9,0-8.5,3.8-8.5,8.9s3.6,8.9,8.5,8.9c2.8,0,5.2-1.7,6.3-3.9l4.9,2.4c-1.9,3.4-5.3,6.6-11.3,6.6C89.3,27.9,83,22.3,83,14z"/>
	<path fill="#010101" d="M110.2,23.7l3.2-4.5c1.9,2,4.9,3.7,8.6,3.7c3.2,0,4.7-1.4,4.7-3c0-4.7-15.6-1.4-15.6-11.6
		c0-4.5,3.9-8.2,10.2-8.2c4.3,0,7.9,1.3,10.5,3.8l-3.2,4.3c-2.2-2-5.1-3-7.9-3c-2.4,0-3.8,1.1-3.8,2.7c0,4.3,15.5,1.4,15.5,11.5
		c0,4.9-3.6,8.7-10.8,8.7C116.5,27.9,112.8,26.2,110.2,23.7z"/>
</g>
</svg>
