<?xml version="1.0" encoding="utf-8"?>
<!-- Generator: Adobe Illustrator 18.1.0, SVG Export Plug-In . SVG Version: 6.00 Build 0)  -->
<!DOCTYPE svg PUBLIC "-//W3C//DTD SVG 1.1//EN" "http://www.w3.org/Graphics/SVG/1.1/DTD/svg11.dtd">
<svg version="1.1" id="Layer_1" xmlns="http://www.w3.org/2000/svg" xmlns:xlink="http://www.w3.org/1999/xlink" x="0px" y="0px"
	 viewBox="22 34.4 143.3 32.6" enable-background="new 22 34.4 143.3 32.6" xml:space="preserve">
<g>
	<g>
		<path fill="#FFFFFF" d="M22,35h8.3l6.8,11l6.8-11h8.3v28.4h-7.8V47l-7.2,11.1H37l-7.2-11v16.2H22V35z"/>
		<path fill="#FFFFFF" d="M57.3,35h22.8v6.7h-15V46h13.6v6.2H65.1v4.5h15.2v6.7h-23V35z"/>
		<path fill="#FFFFFF" d="M84.7,35h13.4c2.2,0,4,0.3,5.5,0.8s2.7,1.3,3.7,2.3c1.7,1.6,2.5,3.8,2.5,6.6v0.1c0,2.2-0.5,4-1.6,5.4
			c-1.1,1.4-2.5,2.5-4.3,3.3l9.3,13.6h-9.1L96,54.7h-0.1h-3.4v8.6h-7.9L84.7,35L84.7,35z M97.7,48.6c1.3,0,2.4-0.3,3.1-0.9
			c0.7-0.6,1.1-1.4,1.1-2.5v-0.1c0-1.1-0.4-2-1.1-2.5c-0.8-0.6-1.8-0.8-3.1-0.8h-5.1v6.8C92.6,48.6,97.7,48.6,97.7,48.6z"/>
		<path fill="#FFFFFF" d="M126.8,63.9c-2,0-3.9-0.4-5.7-1.1c-1.8-0.7-3.3-1.7-4.6-3.1c-1.3-1.3-2.3-2.9-3.1-4.7
			c-0.8-1.8-1.2-3.7-1.2-5.9V49c0-2.1,0.4-4,1.1-5.8c0.8-1.8,1.8-3.4,3.1-4.7c1.3-1.3,2.9-2.4,4.7-3.1c1.8-0.8,3.8-1.1,6-1.1
			c1.5,0,2.8,0.1,4,0.4s2.3,0.7,3.3,1.2s1.9,1.2,2.7,1.9c0.8,0.7,1.5,1.5,2.1,2.4l-5.9,4.6c-0.8-1-1.7-1.8-2.7-2.4
			c-1-0.6-2.1-0.9-3.5-0.9c-1,0-1.9,0.2-2.7,0.6c-0.8,0.4-1.5,0.9-2.1,1.6s-1.1,1.5-1.4,2.4c-0.3,0.9-0.5,1.9-0.5,2.9v0.1
			c0,1.1,0.2,2,0.5,3c0.3,0.9,0.8,1.7,1.4,2.4c0.6,0.7,1.3,1.2,2.1,1.6c0.8,0.4,1.7,0.6,2.7,0.6c0.7,0,1.4-0.1,2-0.2
			s1.2-0.4,1.7-0.7s1-0.7,1.4-1.1c0.4-0.4,0.9-0.9,1.3-1.4l5.9,4.2c-0.7,0.9-1.4,1.8-2.2,2.6c-0.8,0.8-1.7,1.5-2.7,2
			c-1,0.6-2.1,1-3.4,1.3C129.8,63.7,128.4,63.9,126.8,63.9z"/>
		<path fill="#FFFFFF" d="M153.8,63.8c-2.5,0-4.9-0.4-7.2-1.2c-2.3-0.8-4.3-2-6.1-3.5l4.4-5.2c2.8,2.3,5.9,3.4,9.2,3.4
			c1.1,0,1.9-0.2,2.4-0.5c0.6-0.3,0.8-0.8,0.8-1.4v-0.1c0-0.3-0.1-0.6-0.2-0.8c-0.1-0.2-0.4-0.5-0.7-0.7c-0.4-0.2-0.9-0.4-1.5-0.6
			s-1.4-0.4-2.4-0.6c-1.5-0.4-2.9-0.7-4.2-1.2c-1.3-0.4-2.4-1-3.4-1.6c-1-0.7-1.7-1.5-2.3-2.5c-0.6-1-0.8-2.2-0.8-3.7v-0.1
			c0-1.3,0.2-2.5,0.7-3.6s1.2-2.1,2.2-2.9c1-0.8,2.1-1.4,3.5-1.9c1.3-0.4,2.9-0.7,4.6-0.7c2.4,0,4.6,0.3,6.5,1
			c1.9,0.6,3.6,1.6,5.2,2.8l-3.9,5.6c-1.3-0.9-2.6-1.6-4-2.1s-2.7-0.7-3.9-0.7c-0.9,0-1.7,0.2-2.1,0.5c-0.4,0.3-0.7,0.8-0.7,1.3v0.1
			c0,0.3,0.1,0.6,0.2,0.8c0.1,0.2,0.4,0.5,0.8,0.7c0.4,0.2,0.9,0.4,1.5,0.6s1.4,0.4,2.4,0.6c1.6,0.4,3.1,0.8,4.4,1.2
			c1.3,0.5,2.4,1,3.3,1.7c0.9,0.7,1.6,1.5,2.1,2.4c0.5,1,0.7,2.1,0.7,3.4v0.1c0,1.5-0.3,2.8-0.8,3.9c-0.6,1.1-1.3,2.1-2.3,2.9
			c-1,0.8-2.2,1.4-3.6,1.8C157.1,63.6,155.5,63.8,153.8,63.8z"/>
	</g>
</g>
</svg>
