<?xml version="1.0" encoding="utf-8"?>
<!-- Generator: Adobe Illustrator 18.1.0, SVG Export Plug-In . SVG Version: 6.00 Build 0)  -->
<!DOCTYPE svg PUBLIC "-//W3C//DTD SVG 1.1//EN" "http://www.w3.org/Graphics/SVG/1.1/DTD/svg11.dtd">
<svg version="1.1" id="Layer_1" xmlns="http://www.w3.org/2000/svg" xmlns:xlink="http://www.w3.org/1999/xlink" x="0px" y="0px"
	 width="150px" height="26.7px" viewBox="304.8 351.1 150 26.7" enable-background="new 304.8 351.1 150 26.7" xml:space="preserve"
	>
<g>
	<path fill="#474747" d="M304.9,351.4c6,0,12.1,0,18.3,0c0,3.1,0,6,0,9c-0.1,0-0.2,0.1-0.3,0.1c-0.2-0.5-0.5-0.8-0.7-1.3
		c-0.7-2-1.3-4-2-6c-0.2-0.4-0.7-0.9-1-0.9c-2-0.1-4,0-6.1,0c0,3.7,0,7.2,0,10.9c1.3,0,2.6,0,4,0c0.3-1.7,0.5-3.4,0.7-5
		c0.2,0,0.4,0.1,0.5,0.1c0,3.7,0,7.6,0,11.3c-0.2,0-0.4,0.1-0.6,0.1c-0.3-1.8-0.5-3.6-0.7-5.4c-1.3,0-2.5,0-3.9,0
		c0,4.1,0,8.2,0,12.4c1.3,0.1,2.7,0.3,4,0.4c0,0.2,0,0.4-0.1,0.6c-4.1,0-8.2,0-12.3,0c0-0.2,0-0.4,0-0.6c1.3-0.2,2.6-0.3,3.8-0.5
		c0-8.2,0-16.1,0-24.2c-1.2-0.1-2.5-0.2-3.7-0.4C304.9,351.8,304.9,351.6,304.9,351.4z"/>
	<path fill="#474747" d="M360.4,364.5c3.4,0.4,4.3,2.3,4.6,4.9c0.3,2.4,0.7,4.8,1.1,7.2c1.1,0.2,2.2,0.3,3.2,0.5c0,0.2,0,0.3,0,0.5
		c-2.3,0-4.6,0-7,0c-0.5-2.8-0.8-5.7-1.3-8.6c-0.7-3.6-1.1-3.9-4.8-3.9c-0.6,0-1,0-1.8,0c0,2.1,0,3.9,0,5.9c0,1.9,0,3.8,0,5.7
		c1.3,0.2,2.5,0.3,3.7,0.4c0,0.2,0,0.3,0,0.5c-3.8,0-7.6,0-11.4,0c0-0.1-0.1-0.3-0.1-0.5c1.2-0.2,2.4-0.3,3.7-0.5c0-8.1,0-16,0-24.2
		c-1.2-0.1-2.4-0.3-3.7-0.4c0-0.2,0-0.4,0.1-0.6c0.4,0,0.8-0.1,1.2-0.1c4.2,0.1,8.4-0.1,12.6,0.3c3.6,0.3,4.8,1.8,5.2,5.1
		c0.5,3.5-0.9,6-3.9,7.2C361.4,364.1,361.2,364.2,360.4,364.5z M354.4,364.1c2.3-0.3,5.2,0.7,6.5-1.9c1.3-2.6,1.4-5.7-0.1-8.3
		c-1.4-2.3-4-1.5-6.4-1.7C354.4,356.3,354.4,360,354.4,364.1z"/>
	<path fill="#474747" d="M346.4,365c-0.4,1.9-0.7,4.4-1.5,6.7c-1.5,4.2-4.8,6.1-9.7,6c-4.4-0.1-7.5-2.2-8.9-6.4
		c-1.5-4.5-1.5-9.1,0-13.6c1.5-4.8,5.2-7,10.6-6.7c4.7,0.3,7.9,3.2,8.9,8.2C346,361,346.1,362.7,346.4,365z M329.4,364.4
		c0.4,2.8,0.5,5.6,1.1,8.4c0.7,3,2.4,4.2,5.5,4.1c2.7-0.1,4.3-1.4,4.9-4.3c0.4-2.1,0.7-4.2,0.7-6.3c-0.1-3.4-0.2-6.8-0.7-10.2
		c-0.5-2.9-2.3-4-5.2-4c-2.8,0-4.5,1.2-5.1,4.1C330,358.8,329.8,361.5,329.4,364.4z"/>
	<path fill="#474747" d="M430.7,377.9c-4.6-7.4-9.2-14.8-14-22.5c-0.1,0.8-0.1,1.2-0.1,1.7c0,6,0,12,0,18c0,1.3,0.6,1.7,1.7,1.7
		c0.7,0,1.4,0.2,2.1,0.3c0,0.2-0.1,0.4-0.1,0.5c-2.8,0-5.7,0-8.5,0c0-0.1-0.1-0.2-0.1-0.3c0.4-0.2,0.8-0.4,1.2-0.4
		c2.6-0.3,2.6-0.3,2.6-2.9c0-6.5,0-12.8,0-19.3c0-2-0.1-2.1-2-2.3c-0.4-0.1-0.7-0.3-1.1-0.4c0-0.2,0.1-0.4,0.1-0.5
		c2.2,0,4.4,0,6.7,0.1c0.4,0,0.7,0.6,0.9,0.9c3,4.9,6,9.7,9,14.7c0.3,0.5,0.7,0.9,1.1,1.7c0.1-0.7,0.1-1.1,0.1-1.5
		c0-4.4-0.1-8.8,0-13.2c0-1.3-0.5-1.8-1.7-1.8c-0.7,0-1.4-0.2-2.1-0.3c0-0.2,0-0.4,0.1-0.5c2.8,0,5.6,0,8.4,0c0,0.2,0.1,0.3,0.1,0.4
		c-0.5,0.1-1,0.3-1.6,0.3c-2.2,0.2-2.2,0.2-2.2,2.2c0,7.2,0,14.4,0,21.6c0,0.5-0.1,1-0.1,1.5C431,377.8,430.9,377.9,430.7,377.9z"/>
	<path fill="#474747" d="M448.3,357.9c0.9,1.1,0.9,10.7,0,12.1c-0.2-1.5-0.5-2.7-0.4-3.9c0.1-1.6-0.6-2.1-2.1-1.9
		c-0.7,0.1-1.3,0-2.2,0c0,4.2,0,8.3,0,12.6c2.2,0,4.4,0,6.6,0c0.3,0,0.7-0.6,0.8-0.9c0.8-2.2,1.7-4.6,2.5-6.9c0.1-0.4,0.4-0.7,0.7-1
		c0.2,0.1,0.3,0.1,0.5,0.2c-0.2,3.2-0.5,6.4-0.7,9.6c-6.2,0-12.3,0-18.5,0c0-0.2,0-0.3-0.1-0.5c1.2-0.2,2.5-0.3,3.8-0.5
		c0-8.1,0-16.1,0-24.2c-1.3-0.1-2.5-0.3-3.8-0.4c0-0.2,0-0.3,0.1-0.5c6,0,12.1,0,18.3,0c0,2.9,0,5.7,0,8.6c-0.1,0.1-0.2,0.1-0.3,0.2
		c-0.2-0.4-0.6-0.7-0.7-1.2c-0.7-2-1.2-3.9-1.9-5.9c-0.1-0.4-0.7-0.9-0.9-0.9c-2.1-0.1-4.2,0-6.4,0c0,3.7,0,7.2,0,10.9
		c1.3,0,2.6,0,4,0C447.9,361.5,448.1,359.9,448.3,357.9z"/>
	<path fill="#474747" d="M406.7,352.6c-1.1-0.2-2.1-0.4-3-0.6c0-0.2,0.1-0.3,0.1-0.5c2.5,0,5.1,0,7.6,0c0,0.1,0.1,0.3,0.1,0.4
		c-0.5,0.1-0.9,0.3-1.4,0.4c-2.1,0.2-2.1,0.2-2.1,2.2c0,5.6,0,11.1,0,16.8c0,4.2-1.6,6-5.8,6.3c-2,0.1-4,0-6-0.4
		c-2.7-0.6-4.2-2.3-4.2-5.1c-0.2-5.9-0.1-11.9-0.1-17.8c0-0.7,0-1.2,0-2c-1.2-0.1-2.3-0.2-3.4-0.3c0-0.2,0-0.4,0-0.5
		c3.8,0,7.6,0,11.4,0c0,0.2,0,0.3,0.1,0.5c-1.2,0.1-2.5,0.3-3.9,0.4c0,1.2,0,2.3,0,3.5c0,5.1,0,10.2,0,15.3c0,3.7,1.2,4.9,5,5
		c0.7,0,1.5,0,2.2-0.1c2.1-0.3,3.5-1.5,3.5-3.6C406.7,366,406.7,359.4,406.7,352.6z"/>
	<path fill="#474747" d="M368.6,360.3c0-2.9,0-5.8,0-8.9c6.5,0,12.6,0,19.1,0c0,3,0,5.9,0,8.9c-0.1,0.1-0.2,0.2-0.4,0.2
		c-1.3-2.6-1.8-5.5-2.9-8.2c-1.3,0-2.6,0-4.1,0c0,8.1,0,16.1,0,24.3c1.3,0.1,2.6,0.3,3.8,0.4c0,0.2,0,0.3-0.1,0.5c-4,0-8,0-12,0
		c0-0.2-0.1-0.3-0.1-0.5c1.2-0.2,2.5-0.3,3.8-0.5c0-8,0-16,0-24.3c-1.1,0-2.3-0.1-3.5,0c-0.4,0-0.7,0.5-0.9,0.8
		c-0.7,2.1-1.4,4.1-2.1,6.1C369.1,359.7,368.8,360,368.6,360.3C368.8,360.5,368.7,360.4,368.6,360.3z"/>
</g>
</svg>
