<?xml version="1.0" encoding="utf-8"?>
<!-- Generator: Adobe Illustrator 18.1.0, SVG Export Plug-In . SVG Version: 6.00 Build 0)  -->
<!DOCTYPE svg PUBLIC "-//W3C//DTD SVG 1.1//EN" "http://www.w3.org/Graphics/SVG/1.1/DTD/svg11.dtd">
<svg version="1.1" id="Layer_1" xmlns="http://www.w3.org/2000/svg" xmlns:xlink="http://www.w3.org/1999/xlink" x="0px" y="0px"
	 width="150px" height="35.2px" viewBox="305 333.2 150 35.2" enable-background="new 305 333.2 150 35.2" xml:space="preserve">
<g>
	<g>
		<path fill="#474747" d="M305,351.4c3.1,0,6.1,0,9.2,0c0.6,0,1.2,0.1,1.7,0.3c1.6,0.5,2.6,1.6,2.9,3.3c0.2,1.7-0.2,3.1-1.9,3.9
			c3,1.6,3.7,5.1,1.5,7.4c-1.2,1.2-2.7,1.6-4.3,1.6c-3,0-6,0-9,0C305,362.5,305,357,305,351.4z M309.8,361c0,1.1,0,2.1,0,3.1
			c1.3,0,2.5,0.1,3.8,0c0.8,0,1.4-0.8,1.3-1.6c0-0.8-0.7-1.5-1.5-1.5C312.3,360.9,311.1,361,309.8,361z M309.8,357.8
			c1.1,0,2.2,0,3.3,0c0.6,0,1.1-0.4,1.1-1.1c0-0.7-0.3-1.3-1-1.4c-1.1-0.1-2.3,0-3.4,0C309.8,356.1,309.8,356.9,309.8,357.8z"/>
		<path fill="#474747" d="M314.7,333.2c0.5,0.1,1,0.2,1.4,0.4c2.1,0.8,3.2,2.8,2.6,4.9c-0.3,1-0.9,1.6-1.8,2.1c0,0.1,0,0.1,0.1,0.1
			c2.1,0.9,2.9,2.7,2.6,4.9c-0.3,2.1-1.9,3.6-4.2,3.9c-0.7,0.1-1.4,0.1-2.1,0.1c-2.7,0-5.5,0-8.3,0c0-5.5,0-11,0-16.5
			C308.3,333.2,311.5,333.2,314.7,333.2z M309.8,345.9c1.3,0,2.5,0,3.8,0c0.8,0,1.3-0.7,1.4-1.4c0.1-0.8-0.4-1.5-1.2-1.6
			c-1.3-0.1-2.6,0-4,0C309.8,343.8,309.8,344.8,309.8,345.9z M309.8,339.6c1.1,0,2.2,0.1,3.3,0c0.8-0.1,1.2-0.5,1.2-1.3
			c0-0.7-0.5-1.3-1.3-1.3c-1,0-2.1,0-3.2,0C309.8,337.9,309.8,338.7,309.8,339.6z"/>
		<path fill="#474747" d="M375.3,333.2c0,1.9,0,3.9,0,5.9c0.9-1,1.9-1.5,3-1.6c2.4-0.2,4.3,1.1,5,3.5c0.6,1.8,0.5,3.5,0.1,5.3
			c-1.1,4.4-6.3,4.7-8.3,2c0,0.5,0,0.9-0.1,1.3c-1.4,0-2.7,0-4.1,0c0-5.5,0-11,0-16.5C372.4,333.2,373.9,333.2,375.3,333.2z
			 M379.5,343.8c-0.2-0.7-0.3-1.3-0.5-1.9c-0.6-1.2-2.1-1.4-3-0.4c-1,1.1-1.1,3.5,0,4.7c1,1.1,2.5,0.9,3.1-0.4
			C379.3,345.1,379.4,344.4,379.5,343.8z"/>
		<path fill="#474747" d="M324.4,333.2c0,0.2,0.1,0.4,0.1,0.5c0,5.1,0,10.3,0,15.4c0,0.2,0,0.3,0,0.5c-1.5,0-2.9,0-4.5,0
			c0-0.3,0-0.5,0-0.8c0-4.9,0-9.9,0-14.8c0-0.3,0-0.5,0-0.8C321.4,333.2,322.9,333.2,324.4,333.2z"/>
		<path fill="#474747" d="M363.2,349.7c-1.5,0-2.9,0-4.4,0c0-0.3,0-0.5,0-0.8c0-2,0-4,0-6c0-1.4-0.8-2.1-1.9-1.8
			c-0.7,0.2-1.2,0.9-1.2,1.9c0,1.9,0,3.8,0,5.7c0,0.3,0,0.5,0,0.8c-1.5,0-2.9,0-4.4,0c0-3.9,0-7.8,0-11.7c1.4,0,2.7,0,4.1,0
			c0,0.5,0,1,0,1.4c1-1.2,2.1-1.9,3.7-1.9c1.6,0,2.7,0.6,3.5,2c1-1.4,2.2-2,3.9-2c2.2,0,3.8,1.3,4,3.5c0.1,0.8,0.1,1.5,0.1,2.3
			c0,2,0,4.1,0,6.1c0,0,0,0.1,0,0.2c-1.4,0-2.9,0-4.4,0c0-0.3,0-0.5,0-0.8c0-2,0-4.1,0-6.1c0-1.2-0.6-1.8-1.6-1.6
			c-0.4,0.1-1,0.4-1.2,0.8c-0.3,0.4-0.3,1-0.3,1.5C363.2,345.6,363.2,347.6,363.2,349.7z"/>
		<path fill="#474747" d="M411.4,362.5c0.3-1,0.5-2,0.8-3.1c0.2-0.9,0.5-1.9,0.7-2.8c0.1-0.2,0.3-0.5,0.5-0.5c1.3,0,2.6,0,4,0
			c-0.1,0.3-0.1,0.5-0.2,0.7c-1.1,3.5-2.2,7-3.3,10.5c-0.1,0.5-0.4,0.7-0.9,0.6c-1,0-2,0-2.9,0c-0.5,0-0.7-0.1-0.8-0.6
			c-0.4-1.9-0.9-3.9-1.4-5.9c0-0.1-0.1-0.2-0.2-0.4c-0.6,2.3-1.1,4.6-1.7,6.8c-1.3,0-2.6,0-3.9,0c-0.1,0-0.3-0.2-0.4-0.3
			c-1.2-3.8-2.4-7.5-3.6-11.3c0,0,0,0,0-0.2c1.4,0,2.8,0,4.2,0c0.1,0,0.4,0.4,0.4,0.6c0.5,1.9,1,3.8,1.5,5.7
			c0.1-0.1,0.1-0.2,0.2-0.3c0.4-1.8,0.9-3.6,1.3-5.5c0.1-0.4,0.3-0.6,0.7-0.6c0.9,0,1.7,0,2.6,0c0.5,0,0.6,0.2,0.7,0.6
			c0.4,1.9,0.9,3.8,1.4,5.7C411.3,362.5,411.4,362.5,411.4,362.5z"/>
		<path fill="#474747" d="M406.2,349.9c1.4,0,2.6,0,3.9,0c0.2,0,0.4,0.1,0.5,0.3c0.6,0.6,1.4,0.9,2.3,0.6c0.8-0.3,1.1-0.9,1.1-1.6
			c0-0.4,0-0.8,0-1.1c-0.7,0.3-1.4,0.8-2.1,1c-2.6,0.6-5-0.9-5.7-3.5c-0.5-1.9-0.3-3.8,0.6-5.6c1.5-2.9,5.5-3.2,7.3-0.9
			c0-0.4,0.1-0.7,0.1-1.1c1.3,0,2.7,0,4.1,0c0,0.3,0,0.5,0,0.8c0,3.2,0,6.3,0,9.5c0,3.2-1.7,5.1-4.9,5.5c-1.6,0.2-3.1,0.1-4.6-0.5
			C407.4,352.6,406.5,351.6,406.2,349.9z M410.1,343.5c0.2,0.6,0.3,1.3,0.7,1.8c0.7,1.2,2.3,1.1,3-0.1c0.6-1.1,0.6-2.3,0-3.4
			c-0.7-1.3-2.5-1.4-3.2,0C410.4,342.2,410.3,342.8,410.1,343.5z"/>
		<path fill="#474747" d="M442.6,351.5c1.4,0,2.8,0,4.3,0c0,2.7,0,5.3,0,7.9c0.1,0,0.1,0,0.2,0.1c0.7-0.9,1.4-1.7,2.1-2.6
			c0.4-0.5,0.9-0.8,1.5-0.7c1.3,0,2.6,0,4,0c-1.1,1.2-2,2.2-2.9,3.2c-1,1.1-1,1.1-0.2,2.5c1.1,1.8,2.1,3.6,3.2,5.4
			c0.1,0.2,0.2,0.4,0.4,0.7c-1.6,0-3.2,0-4.7,0c-0.2,0-0.4-0.3-0.5-0.5c-0.7-1.2-1.4-2.4-2-3.7c-1.6,1.1-0.5,2.8-1,4.1
			c-1.4,0-2.7,0-4.2,0C442.6,362.4,442.6,357,442.6,351.5z"/>
		<path fill="#474747" d="M358,367.9c0-2.1,0-4.1,0-6.1c0-0.4,0-0.9-0.1-1.3c-0.1-0.6-0.5-1-1.2-1.1c-0.7-0.1-1.3,0.1-1.6,0.6
			c-0.3,0.5-0.4,1.1-0.5,1.6c-0.1,2,0,4.1,0,6.2c-1.5,0-2.9,0-4.3,0c0-3.9,0-7.8,0-11.7c1.3,0,2.7,0,4.1,0c0,0.5,0.1,1,0.1,1.5
			c0.8-1,1.7-1.6,2.9-1.9c2.7-0.5,4.8,1,5,3.7c0.1,2.6,0.1,5.3,0.1,7.9c0,0.1-0.2,0.4-0.4,0.4C360.7,367.9,359.4,367.9,358,367.9z"
			/>
		<path fill="#474747" d="M332.4,367.9c-1.4,0-2.7,0-4.1,0c0-0.4-0.1-0.9-0.1-1.4c-1.2,1.5-2.6,2-4.3,1.8c-2.1-0.2-3.5-1.6-3.5-3.8
			c-0.1-2.7,0-5.5,0-8.2c1.4,0,2.9,0,4.4,0c0,0.3,0,0.5,0,0.8c0,1.9,0,3.8,0,5.7c0,1.5,1.1,2.3,2.3,1.7c0.8-0.4,1-1.1,1-1.8
			c0-1.9,0-3.7,0-5.6c0-0.3,0-0.5,0-0.8c1.5,0,2.9,0,4.4,0C332.4,360.1,332.4,364,332.4,367.9z"/>
		<path fill="#474747" d="M337.7,343.9c0,3.7-2.7,6.2-6.5,6.2c-3.8,0-6.4-2.6-6.4-6.3c0-3.7,2.7-6.2,6.7-6.2
			C335.1,337.6,337.7,340.3,337.7,343.9z M333.4,343.9c-0.2-0.8-0.3-1.6-0.6-2.3c-0.3-0.7-0.8-1-1.5-1c-0.6,0-1.2,0.3-1.5,0.9
			c-0.7,1.6-0.7,3.1,0,4.7c0.3,0.6,0.8,1,1.5,1c0.7,0,1.3-0.3,1.5-1C333,345.5,333.2,344.7,333.4,343.9z"/>
		<path fill="#474747" d="M344.6,350.1c-3.1-0.1-5.2-1.5-6.1-3.8c-1-2.5-0.3-5.3,1.5-7.1c2.3-2.2,6.7-2.1,9.1,0.1
			c2.3,2.2,2.6,6.2,0.5,8.7C348.2,349.6,346.4,350.1,344.6,350.1z M342.4,343.9c0.1,0.7,0.3,1.5,0.5,2.1c0.2,0.7,0.8,1.2,1.6,1.2
			c0.8,0,1.3-0.4,1.6-1.1c0.6-1.5,0.6-3,0-4.5c-0.3-0.7-0.8-1.1-1.6-1.1c-0.8,0-1.3,0.4-1.6,1.2
			C342.6,342.4,342.5,343.1,342.4,343.9z"/>
		<path fill="#474747" d="M442.1,363.1c-2.7,0-5.5,0-8.3,0c0.2,1,0.5,1.7,1.4,2c0.8,0.3,1.6,0.2,2.3-0.5c0.1-0.1,0.3-0.2,0.4-0.2
			c1.3,0,2.6,0,3.9,0c-0.3,2.4-3.7,4.2-6.9,3.8c-3.7-0.5-6-3.5-5.4-7.4c0.5-3.4,3.7-5.6,7.3-5C440.8,356.4,442.4,360,442.1,363.1z
			 M433.8,360.8c1.3,0,2.6,0,3.9,0c-0.2-1.3-0.9-2-1.9-2C434.8,358.7,434,359.4,433.8,360.8z"/>
		<path fill="#474747" d="M367,363.1c0.2,1,0.6,1.7,1.5,2c0.9,0.3,1.6,0.2,2.3-0.5c0.1-0.1,0.3-0.2,0.4-0.2c1.3,0,2.6,0,3.8,0
			c-0.1,2.2-3.3,4-6.6,3.8c-3.5-0.2-6-3.1-5.7-6.8c0.3-3.7,3.1-6,7-5.7c3.5,0.3,5.9,3.4,5.6,7.3C372.6,363.1,369.8,363.1,367,363.1z
			 M370.9,360.8c-0.1-1.3-0.9-2.1-2-2c-1.1,0.1-1.8,1-1.8,2C368.4,360.8,369.6,360.8,370.9,360.8z"/>
		<path fill="#474747" d="M429.1,363.1c-1.4,0-2.7,0-4.1,0c-1.4,0-2.7,0-4.2,0c0.2,1,0.5,1.7,1.4,2c0.8,0.3,1.6,0.2,2.3-0.5
			c0.1-0.1,0.3-0.2,0.4-0.2c1.3,0,2.6,0,3.9,0c-0.2,2.3-3.6,4.2-6.8,3.8c-3.7-0.4-6-3.4-5.5-7.3c0.5-3.4,3.6-5.7,7.3-5.1
			C427.5,356.4,429.3,359.7,429.1,363.1z M424.7,360.8c-0.1-1.2-0.8-2-1.8-2c-1.1,0-1.9,0.7-2,2
			C422.1,360.8,423.3,360.8,424.7,360.8z"/>
		<path fill="#474747" d="M396.8,344.9c-2.7,0-5.5,0-8.3,0c0.2,1,0.5,1.7,1.4,2c0.9,0.3,1.7,0.2,2.4-0.5c0.1-0.1,0.3-0.2,0.4-0.2
			c1.3,0,2.6,0,3.8,0c-0.2,2.3-3.5,4.2-6.8,3.8c-3.5-0.4-6-3.4-5.5-6.8c0.5-3.9,3.5-6.2,7.4-5.6
			C395.3,338.2,397.1,341.5,396.8,344.9z M388.6,342.5c1.3,0,2.6,0,3.9,0c0-1.2-0.8-2-1.8-2C389.5,340.5,388.8,341.2,388.6,342.5z"
			/>
		<path fill="#474747" d="M375.5,364.2c1.4,0,2.7,0,4.1,0c0.6,1.4,1.2,1.7,2.5,1.4c0.5-0.1,0.9-0.3,0.8-0.9
			c-0.1-0.3-0.4-0.8-0.7-0.9c-0.7-0.3-1.5-0.3-2.2-0.5c-0.7-0.1-1.4-0.3-2.1-0.5c-1.3-0.4-2-1.4-2.1-2.8c-0.1-1.4,0.3-2.5,1.5-3.3
			c1.6-1,3.3-1.2,5.1-1c1,0.1,1.9,0.5,2.8,0.9c1,0.5,1.5,1.5,1.5,2.7c-1.2,0-2.5,0-3.8,0c-0.1,0-0.3-0.2-0.4-0.3
			c-0.4-0.7-1.6-1-2.3-0.5c-0.5,0.3-0.5,1,0.1,1.2c0.7,0.2,1.5,0.3,2.2,0.5c0.8,0.2,1.6,0.3,2.4,0.6c1.3,0.5,2,1.5,2.2,2.9
			c0.1,1.4-0.3,2.6-1.5,3.5c-1.3,0.9-2.9,1.1-4.4,1.1c-1.3,0-2.6-0.2-3.7-0.8C376.3,366.8,375.5,365.7,375.5,364.2z"/>
		<path fill="#474747" d="M333,364.2c1.4,0,2.8,0,4.1,0c0.5,1.3,1.2,1.7,2.4,1.4c0.4-0.1,0.8-0.5,0.9-0.8c0.2-0.5-0.2-0.8-0.7-1
			c-0.7-0.2-1.5-0.3-2.2-0.5c-0.7-0.2-1.4-0.3-2.1-0.5c-1.3-0.4-2-1.4-2.1-2.7c-0.1-1.4,0.3-2.5,1.5-3.3c1.6-1,3.4-1.2,5.2-1
			c1.3,0.1,2.5,0.4,3.4,1.4c0.5,0.6,0.8,1.3,0.8,2.1c-1.3,0-2.6,0-3.8,0c-0.1,0-0.3-0.2-0.4-0.3c-0.4-0.7-1.5-1-2.2-0.5
			c-0.2,0.1-0.4,0.4-0.3,0.6c0,0.2,0.3,0.5,0.5,0.6c0.7,0.2,1.5,0.3,2.2,0.5c0.8,0.2,1.6,0.3,2.3,0.6c1.5,0.5,2.2,1.7,2.2,3.2
			c0,1.5-0.6,2.7-1.9,3.4c-1.3,0.7-2.7,0.9-4.1,0.8c-1.3,0-2.5-0.2-3.6-0.8C333.9,366.8,333.1,365.8,333,364.2z"/>
		<path fill="#474747" d="M387.4,364.1c1.3,0,2.6,0,3.9,0c0.1,0,0.3,0.3,0.4,0.4c0.4,1,1.9,1.5,2.8,0.8c0.6-0.4,0.5-1.2-0.2-1.5
			c-0.7-0.3-1.5-0.4-2.3-0.5c-0.7-0.1-1.3-0.2-2-0.4c-1.3-0.4-2.1-1.3-2.3-2.7c-0.2-1.5,0.3-2.7,1.6-3.4c2.5-1.4,5.1-1.3,7.6-0.1
			c1.1,0.5,1.6,1.5,1.7,2.8c-1.3,0-2.6,0-3.8,0c-0.1,0-0.3-0.2-0.4-0.3c-0.4-0.7-1.6-1-2.3-0.5c-0.5,0.4-0.4,1,0.2,1.2
			c0.7,0.2,1.5,0.3,2.2,0.5c0.8,0.2,1.6,0.3,2.4,0.6c1.3,0.5,2,1.5,2.1,2.9c0.1,1.5-0.3,2.8-1.6,3.5c-2.7,1.4-5.5,1.4-8.2,0
			C388.1,366.7,387.5,365.6,387.4,364.1z"/>
		<path fill="#474747" d="M405.8,341.5c-0.3,0-0.5,0-0.7,0c-2.2-0.1-3.4,1-3.4,3.3c0,1.6,0,3.3,0,4.9c-1.5,0-2.9,0-4.4,0
			c0-3.9,0-7.8,0-11.7c1.4,0,2.7,0,4.1,0c0,0.5,0,1,0,1.6c0.3-0.3,0.4-0.4,0.5-0.6c0.9-1,2-1.4,3.3-1.4c0.3,0,0.6,0.1,0.6,0.5
			C405.8,339.3,405.8,340.4,405.8,341.5z"/>
		<path fill="#474747" d="M349.8,367.9c-1.4,0-2.8,0-4.2,0c0-3.8,0-7.6,0-11.5c1.4,0,2.8,0,4.2,0C349.8,360.2,349.8,364,349.8,367.9
			z"/>
		<path fill="#474747" d="M349.8,351.8c0,1.1,0,2.1,0,3.1c-1.4,0-2.8,0-4.2,0c0-1,0-2.1,0-3.1C347,351.8,348.3,351.8,349.8,351.8z"
			/>
	</g>
</g>
</svg>
