<!-- Generator: Adobe Illustrator 18.1.0, SVG Export Plug-In  -->
<svg version="1.1"
	 xmlns="http://www.w3.org/2000/svg" xmlns:xlink="http://www.w3.org/1999/xlink" xmlns:a="http://ns.adobe.com/AdobeSVGViewerExtensions/3.0/"
	 x="0px" y="0px" width="17.3px" height="12.6px" viewBox="0 0 17.3 12.6" enable-background="new 0 0 17.3 12.6"
	 xml:space="preserve">
<defs>
</defs>
<g>
	<path fill="#F05455" d="M0,8.8C0,6.5,1.7,2.9,6.7,0l1.2,1.6c-2.6,2-3.8,4-3.9,5.1c1.4,0.4,2.3,1.5,2.3,3c0,1.5-1.4,2.9-3.1,2.9
		S0,11.3,0,8.8z M9.4,8.8c0-2.3,1.7-5.9,6.7-8.8l1.2,1.6c-2.6,2-3.8,4-3.9,5.1c1.4,0.4,2.3,1.5,2.3,3c0,1.5-1.4,2.9-3.1,2.9
		S9.4,11.3,9.4,8.8z"/>
</g>
</svg>
