<?xml version="1.0" encoding="utf-8"?>
<!-- Generator: Adobe Illustrator 18.1.0, SVG Export Plug-In . SVG Version: 6.00 Build 0)  -->
<!DOCTYPE svg PUBLIC "-//W3C//DTD SVG 1.1//EN" "http://www.w3.org/Graphics/SVG/1.1/DTD/svg11.dtd">
<svg version="1.1" id="Layer_1" xmlns="http://www.w3.org/2000/svg" xmlns:xlink="http://www.w3.org/1999/xlink" x="0px" y="0px"
	 viewBox="78 -73 300 290" enable-background="new 78 -73 300 290" xml:space="preserve">
<path opacity="0.5" fill="#FFFFFF" d="M229.5-42.2c-4.4-11.1-15.3-23-35.5-21.4c-25.8,2.8-33.9,27.5-30,42.2c-10.3-6.9-27.8-10-43,3
	c-19.7,19.7-9.2,46.3,1.7,52.7c-11.9-1.1-30.8,6.9-35,28c-4.4,26.1,15.5,41.4,35,41.4h215.6c22.5,0,35-19.4,33.6-37.7
	c-2.2-23.9-24.1-33-36.1-31.1c10-5.6,23.3-31.7,3-52.2c-16.1-15.3-36.6-9.7-43.8-3.1c3.9-12.8-2.5-39.1-28.6-43.3
	c-1.8-0.2-3.5-0.3-5.2-0.3C241.2-63.8,232.3-49.3,229.5-42.2"/>
<path fill="#FFFFFF" d="M124.6-14.1c-11.4,10.3-15.5,33.6,5,47.2l81.9,56L171.7-1.6C163.4-23,140.7-27.7,124.6-14.1"/>
<path fill="#FFFFFF" d="M195-58.2C181.7-58,161.7-42.2,170.6-18l41.1,96.6L226.1-23C229.5-48.3,210.3-59.9,195-58.2"/>
<path fill="#FFFFFF" d="M232.5-26.9h7.8c0,0,4.1,0,4.7,2c-3.1,2.5-11.4,2.8-10.3,16.1l13.1,87.4l40.8-96.8
	c8.3-21.6-9.2-39.7-24.7-40.2c-0.7-0.1-1.5-0.1-2.2-0.1C247.7-58.6,231.7-48.5,232.5-26.9"/>
<path fill="#FFFFFF" d="M286.9-0.8l-38.6,89.6l81.8-56.3C349,19.1,346-2.2,335.4-12.8c-4.4-5-12.6-8.8-21.2-8.8
	C304.1-21.6,293.2-16.2,286.9-0.8"/>
<path fill="#FFFFFF" d="M321,45.2l-76.9,53.6h94.6c19.4,0,31.9-20,26.3-38.3c-3.7-11.5-14.7-20.6-27.5-20.6
	C332.3,39.9,326.6,41.5,321,45.2"/>
<path fill="#FFFFFF" d="M122.4,98.8h93.2l-76.9-53.6C121,33.9,101,40.5,93.8,59.4C87.7,81,102.9,98.8,122.4,98.8"/>
<path fill="#FFFFFF" d="M223.4,165.4h16.7c3.8,0.2,10.7,3.6,10.7,11.5c0,8.3-7.1,11.7-10.9,12h-16.5L223.4,165.4 M223.2,128.5H237
	c4.7,0.3,10.3,3.7,10.3,10.2c0,6.3-4.2,10.5-9.7,11.3h-14.4V128.5 M204.3,113.1v91.3h44.4c10.5,0,23.1-10.5,23.1-24.3
	c0-14.4-9.4-21.4-15.4-24.3c0,0,10.9-6.3,10.4-20c-0.5-18.4-17.5-22.7-23.3-22.7L204.3,113.1"/>
<polygon fill="#FFFFFF" points="116.9,204.4 136.3,204.4 136.3,151.8 193.8,207.8 193.8,113.1 174.5,113.1 174.5,164.3 116.9,109.4 
	"/>
<path fill="#FFFFFF" d="M274.9,157.7c0.5,28.9,21.3,50.4,48,50.4c6.3,0,13-1.2,19.8-3.8v-18.6c-5.4,3.3-11.4,4.9-17.3,4.9
	c-16.2,0-31.4-11.9-30.8-33.7c1.1-17.6,15.5-29.8,31.1-29.8c5.7,0,11.6,1.6,17,5.2v-18.1c-6.3-2.6-12.6-3.7-18.7-3.7
	C297.4,110.6,275.4,133.1,274.9,157.7"/>
</svg>
